<?xml version="1.0" standalone="no"?>
<!DOCTYPE svg PUBLIC "-//W3C//DTD SVG 20010904//EN"
 "http://www.w3.org/TR/2001/REC-SVG-20010904/DTD/svg10.dtd">
<svg version="1.0" xmlns="http://www.w3.org/2000/svg"
 width="700.000000pt" height="700.000000pt" viewBox="0 0 700.000000 700.000000"
 preserveAspectRatio="xMidYMid meet">
<metadata>
Created by potrace 1.11, written by Peter Selinger 2001-2013
</metadata>
<g transform="translate(0.000000,700.000000) scale(0.100000,-0.100000)"
fill="#000000" stroke="none">
<path d="M3480 6993 c0 -18 -91 -840 -96 -860 -4 -20 -11 -23 -47 -23 -64 0
-258 -26 -376 -50 -57 -11 -107 -17 -111 -13 -4 4 -33 87 -65 183 -61 187 -82
232 -59 129 7 -35 27 -126 42 -201 l29 -137 -86 -26 c-122 -38 -264 -96 -389
-159 l-108 -54 -99 151 c-54 84 -105 159 -113 167 -8 8 27 -66 76 -166 l91
-181 -91 -58 c-108 -69 -243 -173 -325 -249 l-60 -55 -334 297 c-185 163 -344
304 -355 312 -18 14 -18 14 -4 -4 8 -11 149 -170 312 -354 l297 -335 -55 -60
c-76 -82 -179 -217 -249 -325 l-58 -91 -181 91 c-100 49 -174 84 -166 76 8 -8
83 -59 167 -113 l151 -99 -50 -99 c-61 -123 -128 -285 -163 -398 l-26 -86
-137 29 c-75 15 -166 35 -201 42 -103 23 -58 2 129 -59 96 -32 179 -61 183
-65 4 -4 -2 -54 -13 -111 -25 -121 -50 -313 -50 -381 0 -41 -3 -48 -22 -52
-20 -5 -843 -96 -861 -96 -4 0 -7 -7 -7 -15 0 -8 3 -15 8 -15 17 0 839 -91
858 -95 19 -4 22 -14 28 -100 3 -53 18 -162 32 -243 15 -81 27 -158 28 -171 1
-22 -11 -28 -181 -85 -100 -34 -184 -64 -188 -67 -5 -6 159 27 332 65 l63 14
10 -37 c5 -20 10 -40 10 -46 0 -5 -112 -122 -250 -260 l-250 -251 0 -47 c0
-27 6 -60 14 -75 8 -15 72 -84 143 -153 193 -190 194 -190 435 49 92 91 169
164 171 161 2 -2 31 -45 64 -94 70 -105 166 -228 235 -301 l48 -50 -298 -335
c-163 -184 -304 -344 -312 -355 -14 -18 -14 -18 4 -4 11 8 170 149 354 312
l335 297 60 -55 c82 -76 217 -179 325 -249 l91 -58 -91 -181 c-49 -100 -86
-176 -80 -171 5 6 56 80 112 165 56 85 105 155 109 155 3 0 51 -23 106 -51
111 -57 291 -130 401 -164 l72 -21 -9 -40 c-36 -158 -76 -359 -70 -354 3 4 33
88 67 188 57 170 63 182 85 181 13 -1 91 -13 172 -28 82 -14 193 -29 248 -33
90 -5 100 -8 104 -27 4 -19 95 -842 95 -858 0 -5 7 -8 15 -8 8 0 15 3 15 8 0
16 91 839 95 858 4 19 14 22 100 28 53 3 162 18 243 32 81 15 158 27 171 28
22 1 28 -11 85 -181 34 -100 64 -184 67 -188 6 -5 -34 196 -70 354 l-9 40 72
21 c110 34 290 107 401 164 55 28 103 51 106 51 4 0 53 -70 109 -155 56 -85
107 -159 112 -165 6 -5 -31 71 -80 171 l-91 181 91 58 c108 70 243 173 325
249 l60 55 335 -297 c184 -163 343 -304 354 -312 18 -14 18 -14 4 4 -8 11
-149 170 -312 355 l-297 334 55 60 c76 82 180 217 249 325 l58 91 181 -91
c100 -49 174 -84 166 -76 -8 8 -83 59 -167 113 l-151 99 50 99 c61 123 128
285 163 398 l26 86 137 -29 c75 -15 166 -35 201 -42 103 -23 58 -2 -129 59
-96 32 -179 61 -183 65 -5 4 0 52 12 106 25 121 51 318 51 384 0 43 3 50 23
54 20 5 842 96 860 96 4 0 7 6 7 14 0 17 26 13 -470 66 -206 23 -385 43 -397
46 -20 4 -23 11 -23 49 0 62 -27 261 -51 379 -12 54 -17 102 -12 106 4 4 87
33 183 65 96 32 179 61 183 65 7 7 -146 -23 -330 -64 l-61 -14 -27 87 c-35
113 -102 274 -164 398 l-49 100 92 60 c69 45 97 58 111 52 35 -14 54 -9 84 19
28 26 35 55 175 692 81 366 146 678 146 693 0 39 -14 62 -47 76 -24 10 -114
-8 -658 -128 -346 -76 -643 -141 -660 -144 -50 -8 -103 -34 -115 -57 -6 -12
-10 -36 -8 -53 2 -25 -10 -52 -56 -124 l-59 -92 -100 50 c-123 62 -285 129
-398 164 l-86 26 29 137 c15 75 35 166 42 201 23 103 2 58 -59 -129 -32 -96
-61 -179 -65 -183 -4 -4 -54 2 -111 13 -121 25 -313 50 -381 50 -41 0 -48 3
-52 23 -5 20 -96 842 -96 860 0 4 -7 7 -15 7 -8 0 -15 -3 -15 -7z m20 -498 l0
-375 -46 0 c-43 0 -46 2 -41 23 3 12 22 181 43 375 21 193 40 352 41 352 2 0
3 -169 3 -375z m-132 -502 l-3 -48 -50 -7 c-27 -4 -104 -14 -170 -23 -239 -31
-473 -104 -713 -220 -754 -366 -1262 -1083 -1357 -1916 -9 -74 -17 -140 -20
-146 -3 -8 -22 -13 -50 -13 l-45 0 0 39 c0 67 29 269 56 391 69 311 190 591
369 860 364 547 923 930 1566 1074 118 26 300 53 377 55 l43 1 -3 -47z m132
-3 l0 -50 -56 0 c-54 0 -56 1 -50 23 3 12 6 34 6 50 0 26 2 27 50 27 l50 0 0
-50z m278 39 c305 -33 630 -132 902 -275 94 -50 314 -190 380 -243 l25 -20
-35 -36 -35 -35 -70 51 c-343 249 -748 406 -1166 454 -74 9 -140 17 -146 20
-8 3 -13 22 -13 50 0 43 1 45 30 45 17 0 74 -5 128 -11z m1307 -239 l149 -150
-48 -49 -48 -49 -78 57 c-43 32 -112 80 -153 106 l-76 48 47 93 c26 52 49 94
52 94 3 0 73 -67 155 -150z m-1585 15 l0 -95 -66 0 -66 0 7 73 c10 112 9 111
98 116 l27 1 0 -95z m-147 33 c-3 -29 -9 -71 -12 -93 l-7 -40 -74 -7 c-369
-37 -755 -187 -1074 -419 -126 -92 -359 -323 -453 -449 -228 -308 -371 -654
-419 -1012 -9 -68 -18 -133 -20 -145 -3 -18 -13 -22 -66 -28 -35 -3 -76 -9
-92 -12 l-29 -5 7 88 c16 197 80 468 157 661 122 308 297 573 538 814 278 277
580 464 946 584 183 61 428 110 562 114 l42 1 -6 -52z m484 33 c154 -23 261
-48 398 -91 222 -72 477 -200 655 -331 l89 -65 -62 -62 c-34 -34 -65 -62 -69
-62 -3 0 -48 29 -99 64 -306 207 -671 343 -1009 373 l-84 8 -7 40 c-3 22 -9
64 -12 93 l-6 52 37 0 c20 0 96 -9 169 -19z m-507 -225 c0 -22 -60 -549 -63
-552 -10 -8 -149 -29 -153 -22 -10 15 -53 8 -63 -11 -6 -10 -44 -30 -88 -46
-43 -15 -107 -41 -143 -58 -36 -16 -83 -33 -105 -36 -27 -4 -43 -13 -50 -28
-6 -12 -47 -47 -91 -79 -43 -31 -102 -77 -131 -101 -33 -29 -57 -42 -65 -37
-7 4 -54 41 -104 81 -86 69 -114 85 -114 64 0 -5 38 -56 84 -113 l84 -104 -43
-50 c-23 -27 -68 -85 -99 -128 -32 -44 -67 -85 -79 -91 -15 -7 -24 -23 -28
-50 -4 -22 -24 -80 -46 -130 -22 -49 -48 -114 -57 -143 -10 -29 -26 -57 -37
-62 -19 -11 -26 -54 -11 -64 6 -4 -14 -145 -23 -163 -3 -5 -556 -65 -561 -61
-7 8 23 214 46 318 66 297 225 628 419 870 78 97 234 253 336 335 306 247 673
405 1065 460 125 17 120 17 120 1z m170 -260 l0 -273 -96 -7 c-53 -4 -98 -6
-100 -3 -2 2 9 124 26 271 16 147 30 272 30 277 0 5 32 9 70 9 l70 0 0 -274z
m290 259 c326 -38 720 -200 1015 -417 6 -4 -75 -93 -189 -207 l-199 -199 -35
23 c-19 13 -40 34 -46 47 -8 16 -23 25 -51 29 -22 3 -69 20 -105 36 -36 17
-100 43 -143 58 -44 16 -82 36 -88 46 -10 19 -53 26 -63 11 -4 -6 -144 14
-163 23 -3 2 -63 529 -63 552 0 11 8 14 38 9 20 -3 62 -8 92 -11z m2150 -715
c0 -3 -42 -26 -94 -52 l-94 -47 -36 58 c-20 33 -66 100 -102 151 l-66 92 48
49 49 49 147 -147 c82 -81 148 -150 148 -153z m-325 -20 c224 -335 361 -701
410 -1100 23 -186 24 -180 -29 -180 -25 0 -47 4 -50 8 -3 5 -12 69 -21 142
-50 431 -214 839 -490 1216 -7 10 0 23 25 49 l34 36 19 -23 c10 -13 55 -79
102 -148z m-2117 93 l-3 -58 -105 -6 c-58 -4 -106 -6 -107 -5 -1 1 1 27 4 58
7 65 3 63 141 66 l73 2 -3 -57z m-238 8 c0 -16 -3 -42 -6 -59 -6 -28 -11 -32
-50 -38 -60 -9 -56 -10 -71 38 -19 63 -18 65 35 76 83 17 92 16 92 -17z m563
18 c31 -7 57 -15 57 -18 -1 -21 -26 -101 -33 -101 -4 0 -29 2 -56 6 -44 6 -50
9 -55 36 -18 91 -12 97 87 77z m-736 -83 c8 -27 11 -52 6 -56 -4 -4 -33 -15
-63 -24 -30 -10 -93 -35 -139 -57 -46 -21 -87 -39 -91 -39 -8 0 -50 74 -50 89
0 21 284 145 314 137 5 -1 16 -24 23 -50z m914 33 c88 -29 249 -105 249 -119
0 -16 -43 -90 -53 -90 -4 0 -31 12 -60 27 -29 14 -92 41 -142 59 -88 31 -90
33 -88 62 3 30 19 82 26 82 2 0 33 -9 68 -21z m1494 -158 c221 -332 355 -712
391 -1103 l7 -77 -54 6 c-132 14 -134 15 -137 53 -6 84 -36 254 -63 357 -59
230 -162 460 -300 668 l-79 119 62 63 c50 50 65 60 76 51 7 -7 51 -68 97 -137z
m-1995 34 c0 -12 -14 -15 -62 -16 -35 0 -87 -4 -115 -8 -47 -7 -53 -5 -53 10
0 20 25 25 153 27 62 2 77 -1 77 -13z m-260 -19 c0 -17 -5 -21 -43 -30 -24 -6
-28 -4 -25 11 2 9 14 20 28 24 38 11 40 10 40 -5z m583 -3 c4 -2 7 -11 7 -19
0 -11 -6 -14 -22 -9 -13 4 -31 9 -40 11 -10 3 -18 12 -18 20 0 12 7 14 33 9
17 -4 35 -9 40 -12z m-1090 -48 l25 -44 -51 -33 c-29 -18 -83 -59 -120 -90
l-69 -58 -45 37 -46 38 54 48 c67 60 209 158 220 152 4 -3 19 -25 32 -50z
m1620 22 l29 -20 -38 -38 c-43 -44 -46 -45 -79 -23 -23 15 -23 18 -10 40 51
84 42 80 98 41z m-1230 -1 c4 -10 -16 -22 -71 -41 -42 -15 -103 -40 -134 -56
-64 -32 -78 -35 -78 -16 0 15 62 47 180 93 99 39 96 38 103 20z m844 -15 c109
-40 193 -83 193 -98 0 -19 -14 -16 -78 16 -31 16 -92 41 -134 56 -75 27 -86
34 -71 48 8 9 1 11 90 -22z m1369 -147 c120 -190 226 -448 274 -664 22 -100
52 -301 45 -308 -4 -4 -557 56 -560 61 -9 14 -30 149 -23 153 15 10 8 53 -11
63 -10 6 -30 44 -46 88 -15 43 -41 107 -58 143 -16 36 -33 83 -36 105 -4 28
-13 43 -30 51 -13 7 -33 27 -44 44 l-20 32 198 198 199 199 27 -38 c16 -21 54
-78 85 -127z m-1836 -223 l0 -378 -65 -6 c-36 -4 -93 -18 -127 -31 l-62 -25
-34 25 c-30 23 -33 30 -28 63 3 20 22 185 42 366 20 182 39 333 43 338 6 6 82
15 214 26 16 1 17 -23 17 -378z m-275 270 l-7 -46 -14 45 c-18 59 -17 68 4 72
22 5 26 -12 17 -71z m583 63 c2 -1 -4 -35 -15 -75 l-18 -72 -7 49 c-3 27 -7
64 -7 82 -1 30 1 33 22 26 12 -3 24 -8 25 -10z m-634 -132 l29 -113 -18 -180
c-10 -98 -22 -179 -26 -179 -8 0 -279 467 -279 482 0 17 219 109 250 105 9 -1
24 -39 44 -115z m757 99 c84 -29 189 -79 189 -90 0 -5 -30 -61 -66 -123 -48
-83 -87 -135 -147 -195 -45 -46 -84 -79 -88 -75 -3 4 -12 61 -19 128 l-12 121
31 114 c39 140 38 139 49 139 5 0 33 -8 63 -19z m-1571 -88 c0 -14 -24 5 -55
45 l-38 47 46 -45 c26 -24 47 -45 47 -47z m427 7 c-12 -8 -60 -43 -106 -78
-96 -72 -135 -72 -49 0 87 74 161 119 170 105 5 -7 -1 -18 -15 -27z m1453 11
c0 -16 -13 -20 -31 -10 -10 5 -16 16 -13 24 5 11 11 12 25 4 10 -5 19 -13 19
-18z m-1275 -268 c72 -125 143 -249 158 -276 35 -60 55 -74 -247 168 l-238
190 39 34 c39 34 144 110 153 110 3 1 64 -101 135 -226z m1219 219 c3 -5 -11
-24 -31 -43 l-36 -34 24 42 c24 43 33 50 43 35z m-1717 -87 c-2 -5 -9 -10 -14
-10 -16 0 -74 76 -67 87 8 12 86 -62 81 -77z m-90 28 c7 -10 22 -30 33 -44
l20 -27 -53 -64 c-29 -35 -67 -87 -85 -115 l-33 -51 -44 25 c-25 13 -47 28
-50 32 -9 15 173 261 192 261 3 0 12 -8 20 -17z m159 -112 c-22 -21 -46 0 -26
24 10 12 16 13 27 3 12 -10 12 -13 -1 -27z m-46 -32 c0 -6 -26 -45 -57 -88
-32 -42 -65 -86 -73 -99 -9 -14 -20 -19 -27 -14 -14 9 29 79 100 165 38 46 57
58 57 36z m125 -19 l29 -30 -21 -22 -21 -21 -26 29 c-29 33 -31 45 -14 62 17
17 21 16 53 -18z m2203 -42 c11 -18 19 -35 16 -39 -2 -4 -24 -19 -49 -32 l-44
-25 -16 25 c-17 25 -16 26 21 64 21 21 41 39 45 39 4 0 16 -14 27 -32z m-2309
-124 c-64 -64 -75 -72 -93 -62 -12 6 -23 12 -24 14 -5 3 52 87 97 143 l35 43
29 -32 29 -33 -73 -73z m-320 14 c20 -12 38 -23 40 -25 2 -1 -14 -42 -37 -90
-22 -49 -48 -113 -58 -143 -9 -30 -20 -59 -24 -63 -7 -8 -87 10 -103 23 -18
15 109 320 134 320 6 0 28 -10 48 -22z m2726 -70 c51 -108 88 -219 78 -228
-16 -13 -96 -31 -103 -23 -4 4 -15 33 -24 63 -10 30 -36 94 -58 143 -23 48
-39 89 -37 91 14 13 76 46 87 46 7 0 33 -42 57 -92z m-247 41 c-18 -11 -32 6
-24 28 7 17 8 17 22 -1 11 -16 11 -21 2 -27z m-58 -27 c0 -5 -12 -14 -27 -21
-28 -13 -28 -13 -9 8 20 22 36 27 36 13z m-2290 -22 c0 -6 -13 -36 -29 -68
-15 -31 -36 -78 -46 -104 -9 -25 -28 -57 -42 -70 l-24 -23 29 80 c41 111 84
195 99 195 7 0 13 -5 13 -10z m2414 -47 c23 -48 86 -206 86 -218 0 -1 -6 -5
-14 -8 -10 -4 -22 16 -41 71 -15 42 -40 103 -56 134 -32 64 -35 78 -16 78 7 0
26 -26 41 -57z m-2340 9 c3 -5 -13 -26 -34 -47 -45 -44 -49 -41 -20 15 19 37
42 51 54 32z m2280 -64 c45 -99 70 -178 60 -188 -5 -4 -57 -20 -117 -35 l-107
-28 -136 13 -135 13 88 89 c64 65 115 105 188 148 55 32 106 59 113 59 7 1 28
-32 46 -71z m-1139 -108 c-32 -33 -46 -40 -78 -40 -21 0 -68 -12 -104 -26
l-65 -26 -24 23 c-13 12 -24 25 -24 29 0 12 66 45 125 61 33 10 94 18 135 18
l74 1 -39 -40z m-1485 -74 c25 -7 44 -16 43 -20 -2 -3 -3 -15 -3 -26 0 -10
-14 -35 -31 -55 -24 -27 -39 -35 -65 -35 -39 0 -40 5 -23 93 7 31 17 57 23 57
6 0 31 -6 56 -14z m2979 -43 c6 -31 11 -62 11 -70 0 -14 -37 -17 -88 -7 -28 6
-32 11 -38 50 -3 24 -7 47 -8 50 -1 8 68 31 95 33 12 1 19 -14 28 -56z m-196
0 c2 -5 7 -21 11 -36 6 -24 4 -28 -11 -25 -21 4 -38 68 -17 68 7 0 15 -3 17
-7z m-70 -33 c4 -16 0 -20 -23 -20 -15 0 -43 3 -61 7 l-34 7 40 12 c57 18 72
17 78 -6z m-243 -25 c129 -14 240 -27 247 -30 6 -2 14 -34 17 -72 4 -37 9 -89
12 -115 l5 -48 -379 0 -380 0 -5 58 -5 57 92 93 c86 88 93 92 126 88 19 -3
141 -17 270 -31z m344 -96 c11 -109 8 -169 -9 -169 -12 0 -15 14 -16 63 0 34
-4 86 -8 115 -6 45 -5 52 9 52 14 0 19 -13 24 -61z m184 35 c2 -1 6 -48 9
-103 l6 -101 -57 0 c-37 0 -58 4 -61 13 -2 6 -6 56 -8 109 l-5 98 56 -6 c31
-4 59 -8 60 -10z m327 -34 c147 -16 271 -30 276 -30 5 0 9 -31 9 -70 l0 -70
-275 0 -275 0 0 33 c0 17 -3 62 -7 100 -3 37 -3 67 0 67 3 0 125 -13 272 -30z
m452 -49 c29 -4 55 -9 57 -12 2 -2 7 -28 11 -56 l7 -53 -96 0 -96 0 0 65 0 65
33 -1 c17 0 56 -4 84 -8z m186 -21 c26 0 27 -2 27 -50 l0 -50 -50 0 -50 0 0
56 c0 54 1 56 23 50 12 -3 34 -6 50 -6z m497 -55 c173 -20 324 -37 335 -39 11
-2 -147 -4 -351 -5 l-372 -1 -4 45 -3 46 40 -6 c22 -3 182 -21 355 -40z
m-2540 -145 c-48 -222 -244 -380 -472 -380 l-68 0 43 39 c33 30 52 39 89 43
69 8 170 59 224 115 55 56 105 155 112 221 3 37 12 55 41 85 l36 38 3 -53 c2
-29 -2 -78 -8 -108z m-3090 56 l0 -44 -42 5 c-24 2 -194 22 -378 43 l-335 38
378 1 377 1 0 -44z m180 -12 c0 -54 -1 -56 -22 -50 -13 3 -35 6 -50 6 -27 0
-28 2 -28 50 l0 50 50 0 50 0 0 -56z m230 -9 l0 -65 -32 1 c-42 1 -136 14
-142 20 -2 2 -7 28 -11 57 l-7 52 96 0 96 0 0 -65z m420 -20 l-86 -86 -129 16
c-72 8 -136 15 -142 15 -9 0 -13 21 -13 70 l0 70 227 0 228 0 -85 -85z m1192
8 c47 -49 84 -97 97 -127 l21 -49 -26 -34 c-23 -31 -30 -34 -63 -29 -20 3
-144 17 -276 31 -132 14 -251 28 -264 31 -22 5 -14 16 100 130 l124 124 105 0
105 0 77 -77z m3138 -76 c0 -64 -31 -284 -56 -397 -101 -452 -325 -872 -644
-1204 -410 -428 -948 -699 -1530 -771 -186 -23 -180 -24 -180 29 0 25 4 47 9
50 5 3 53 10 107 16 306 33 570 110 843 246 739 366 1242 1084 1336 1905 9 74
17 140 20 147 3 7 22 12 50 12 44 0 45 -1 45 -33z m-4986 15 c3 -5 12 -68 21
-141 8 -73 27 -186 42 -252 l26 -120 -39 -40 c-26 -27 -40 -35 -45 -27 -24 46
-82 355 -95 506 l-7 82 46 0 c25 0 48 -4 51 -8z m4832 -73 c-83 -997 -813
-1857 -1792 -2109 -111 -29 -358 -70 -421 -70 l-32 0 6 53 c3 28 9 70 12 92
l7 40 79 8 c383 37 816 216 1129 465 402 320 691 790 791 1288 14 69 28 161
32 205 3 45 11 83 17 85 9 3 121 19 165 23 11 1 13 -14 7 -80z m-4631 52 l40
-7 8 -76 c4 -42 13 -108 20 -147 l14 -70 -78 -77 -77 -76 -15 68 c-23 102 -45
239 -53 326 l-7 77 54 -6 c30 -3 72 -9 94 -12z m4401 -38 c-3 -21 -8 -63 -11
-93 -4 -30 -18 -107 -31 -170 -135 -635 -575 -1195 -1169 -1486 -139 -67 -276
-117 -430 -155 -113 -28 -335 -63 -343 -54 -4 4 56 557 61 560 14 9 149 30
153 23 10 -15 53 -8 64 11 5 11 33 27 62 37 29 9 94 35 143 57 50 22 108 42
130 46 27 4 43 13 50 28 6 12 47 47 91 79 43 31 102 77 131 101 33 29 57 42
65 37 7 -4 54 -41 104 -81 86 -69 114 -85 114 -64 0 5 -38 56 -84 113 l-84
104 43 50 c23 27 68 85 99 128 32 44 67 85 79 91 15 7 24 23 28 50 4 22 24 81
46 130 22 50 48 114 57 143 10 29 26 57 37 62 19 11 27 54 11 64 -11 7 20 166
32 167 6 0 119 13 251 28 132 16 255 29 273 30 33 1 34 1 28 -36z m-4181 15
c61 -6 112 -13 114 -15 6 -4 -201 -213 -210 -213 -4 0 -12 39 -18 88 -7 48
-14 102 -17 120 -6 37 -16 36 131 20z m3565 -66 c0 -41 -23 -132 -34 -132 -17
0 -101 27 -100 31 1 2 5 27 9 56 7 56 11 59 88 62 30 1 37 -3 37 -17z m-195
-34 c-4 -18 -9 -36 -12 -40 -7 -13 -33 -9 -29 5 3 6 7 24 10 40 4 15 13 27 22
27 12 0 14 -7 9 -32z m-81 0 c-3 -13 -8 -25 -10 -26 -1 -2 -35 4 -75 15 l-73
18 45 6 c24 3 61 7 82 7 35 2 38 0 31 -20z m-155 -39 c64 -18 120 -35 125 -40
18 -16 -84 -263 -106 -257 -26 6 -498 281 -492 287 5 6 264 38 323 40 19 0 86
-13 150 -30z m-1921 4 c89 -9 162 -20 162 -24 0 -8 -467 -279 -482 -279 -19 0
-117 244 -103 258 10 11 196 60 230 61 17 1 103 -6 193 -16z m1551 -290 c166
-207 212 -270 204 -282 -5 -8 -14 -16 -19 -18 -5 -2 -128 116 -273 261 -303
303 -299 295 -150 304 22 2 54 -34 238 -265z m-1311 239 c-7 -10 -98 -126
-203 -256 l-190 -238 -34 39 c-51 59 -115 156 -105 160 5 2 128 73 274 158
146 85 266 154 268 155 2 0 -3 -8 -10 -18z m1680 -298 c5 -3 -68 -109 -105
-153 l-29 -34 -189 234 c-103 129 -193 240 -198 247 -8 10 503 -278 521 -294z
m206 287 c14 -22 -98 -281 -121 -281 -19 0 -16 14 16 78 16 31 41 92 56 135
26 73 37 88 49 68z m-1676 -23 c5 -7 13 -38 17 -68 l7 -55 -266 -212 c-146
-117 -270 -213 -275 -213 -5 0 -14 7 -22 16 -11 13 23 51 252 280 145 145 267
264 270 264 4 0 11 -6 17 -12z m-898 -60 c12 -35 36 -89 51 -120 32 -64 35
-78 16 -78 -14 0 -56 79 -92 176 -17 45 -20 65 -12 73 6 6 12 11 13 11 1 0 12
-28 24 -62z m2704 50 c22 -6 44 -14 49 -18 18 -15 -109 -320 -134 -320 -9 0
-68 31 -88 47 -2 1 14 42 36 90 23 49 48 111 57 138 25 75 25 75 32 75 4 0 25
-5 48 -12z m-2752 -197 c21 -46 38 -87 38 -91 0 -8 -74 -50 -89 -50 -6 0 -26
30 -45 68 -54 108 -54 108 -5 158 43 44 44 44 53 22 5 -13 27 -61 48 -107z
m1596 102 l32 -28 -40 -360 c-23 -198 -42 -365 -45 -372 -2 -6 -37 -14 -82
-17 -43 -4 -95 -9 -115 -11 l-38 -5 0 378 0 379 65 6 c35 3 90 17 122 30 32
14 60 25 63 26 3 0 20 -11 38 -26z m336 -268 l238 -190 -39 -34 c-44 -38 -153
-114 -157 -109 -2 1 -65 111 -141 243 -75 132 -147 256 -158 275 -21 34 -21
34 -1 20 11 -8 128 -100 258 -205z m-1136 -67 c-83 -145 -152 -265 -154 -267
-4 -5 -149 96 -169 118 -16 18 -6 28 227 215 134 108 244 196 245 196 1 0 -66
-118 -149 -262z m-946 165 c17 -38 34 -86 37 -108 4 -27 13 -43 28 -50 12 -6
47 -47 79 -91 31 -43 77 -102 101 -131 29 -33 42 -57 37 -65 -4 -7 -41 -54
-81 -104 -69 -86 -85 -114 -64 -114 5 0 56 38 113 84 l104 84 50 -43 c27 -23
85 -68 128 -99 44 -32 85 -67 91 -79 7 -15 23 -24 50 -28 22 -3 69 -20 105
-36 36 -17 100 -43 143 -58 44 -16 82 -36 88 -46 10 -19 53 -26 63 -11 4 6
151 -14 163 -23 6 -3 65 -557 61 -561 -8 -7 -214 23 -318 46 -296 66 -629 226
-870 419 -95 76 -261 243 -340 341 -61 77 -141 195 -197 290 l-21 35 207 208
c113 114 207 207 209 207 1 0 17 -30 34 -67z m1152 -143 l18 -166 -32 -119
c-18 -66 -36 -124 -41 -129 -16 -18 -263 84 -257 107 8 36 283 496 288 485 4
-7 15 -87 24 -178z m926 -312 c0 -21 -245 -117 -260 -102 -4 5 -20 58 -36 117
l-28 109 19 176 c10 98 20 181 22 185 5 8 283 -468 283 -485z m-1682 313 c41
-53 60 -87 54 -93 -10 -10 -77 63 -135 152 -27 39 -33 56 -24 62 7 5 18 -1 27
-15 8 -12 44 -60 78 -106z m2235 105 c-41 -71 -139 -196 -154 -196 -19 0 -8
25 34 79 24 31 56 75 71 98 18 26 33 40 42 36 8 -3 11 -10 7 -17z m-2361 -106
c25 -36 64 -87 86 -114 l41 -49 -37 -45 -37 -45 -48 54 c-51 57 -144 187 -149
209 -3 14 83 71 93 61 3 -3 26 -35 51 -71z m2523 21 c6 -10 -92 -152 -149
-216 -49 -56 -41 -57 -96 16 l-19 26 51 64 c28 35 66 87 85 115 l34 52 45 -25
c24 -13 46 -28 49 -32z m-346 -157 c-9 -11 -15 -12 -26 -3 -11 10 -11 15 4 31
15 17 18 17 26 3 5 -10 4 -21 -4 -31z m-1914 -37 c-23 -12 -49 11 -34 30 10
11 15 11 31 -4 17 -15 17 -18 3 -26z m1839 -16 c7 -11 -74 -82 -154 -134 -39
-27 -56 -33 -62 -24 -5 7 1 18 15 27 12 8 58 43 102 77 85 65 91 68 99 54z
m174 -32 c43 -57 29 -71 -21 -21 -22 22 -36 45 -33 51 12 18 20 13 54 -30z
m-1899 -26 c42 -32 86 -65 99 -73 14 -9 19 -20 14 -27 -6 -9 -23 -3 -62 24
-71 47 -150 112 -150 124 0 19 25 7 99 -48z m-194 20 c0 -16 -76 -74 -87 -67
-5 4 7 24 28 45 36 37 59 45 59 22z m-844 -162 c289 -446 738 -775 1256 -920
126 -35 248 -59 359 -69 l78 -7 7 -40 c3 -22 9 -64 12 -94 l6 -54 -87 7 c-350
28 -748 163 -1054 357 -293 186 -578 471 -756 755 l-50 81 66 67 c57 57 68 64
77 50 6 -9 44 -69 86 -133z m2868 26 c-67 -60 -209 -158 -220 -152 -4 3 -19
25 -32 50 l-25 44 51 33 c28 18 82 58 120 89 l70 58 45 -37 45 -37 -54 -48z
m-1919 54 c30 -26 78 -61 107 -79 l51 -33 -25 -44 c-13 -25 -28 -47 -32 -50
-16 -9 -262 174 -261 193 1 14 85 70 95 64 5 -3 35 -26 65 -51z m639 -109 c1
-30 -1 -33 -21 -26 -13 3 -25 8 -26 10 -2 1 4 35 15 75 l18 72 7 -49 c3 -27 7
-64 7 -82z m1455 63 c21 -25 36 -45 34 -45 -2 0 -24 20 -48 45 -24 25 -39 45
-33 45 6 0 27 -20 47 -45z m-2324 26 c0 -5 -21 -26 -47 -46 l-48 -38 45 46
c47 50 50 52 50 38z m1440 -97 c0 -7 -9 -14 -20 -17 -16 -4 -20 0 -20 23 0 15
3 42 7 61 l6 33 13 -45 c8 -24 14 -49 14 -55z m-892 37 c31 -16 92 -41 135
-56 73 -26 88 -37 68 -49 -22 -14 -281 98 -281 121 0 19 14 16 78 -16z m1242
16 c0 -15 -84 -58 -193 -98 -92 -34 -83 -33 -90 -15 -4 10 19 23 81 45 48 18
107 43 132 56 51 27 70 31 70 12z m-2715 -127 c136 -214 375 -474 568 -618
376 -282 792 -446 1245 -492 57 -5 108 -12 113 -16 5 -3 9 -25 9 -50 0 -43 -1
-44 -33 -44 -64 0 -284 31 -397 56 -628 140 -1190 520 -1551 1051 -38 56 -72
109 -75 118 -7 18 55 90 67 78 3 -5 28 -42 54 -83z m1423 21 c31 -16 93 -41
137 -56 44 -16 84 -31 88 -35 8 -7 -10 -87 -23 -103 -15 -17 -320 109 -320
133 0 16 43 90 53 90 4 0 33 -13 65 -29z m1360 -10 c12 -21 22 -44 22 -50 0
-24 -305 -152 -320 -134 -13 16 -31 96 -23 103 4 4 33 15 63 24 30 10 91 35
135 56 44 21 85 39 91 39 6 1 20 -16 32 -38z m-1000 -6 c12 -3 22 -13 22 -22
0 -11 -6 -14 -22 -9 -13 3 -31 6 -40 6 -11 0 -18 8 -18 21 0 15 5 19 18 15 9
-2 27 -7 40 -11z m602 1 c0 -17 -5 -21 -43 -30 -24 -6 -28 -4 -25 11 2 9 14
20 28 24 38 11 40 10 40 -5z m-103 -42 c-2 -2 -54 -7 -115 -11 -100 -5 -112
-4 -112 10 0 14 11 17 63 18 34 0 85 4 112 7 38 5 51 4 53 -6 2 -8 2 -16 -1
-18z m-463 -97 c18 -90 12 -95 -87 -76 -61 12 -63 17 -46 70 6 19 12 39 14 45
2 7 20 7 58 0 50 -9 56 -13 61 -39z m604 -3 c7 -23 12 -46 12 -51 0 -9 -92
-33 -127 -33 -14 0 -17 37 -7 88 5 27 12 31 53 39 25 5 49 7 52 4 3 -3 11 -25
17 -47z m-154 -31 c-4 -32 -8 -60 -10 -61 -1 -2 -48 -6 -103 -9 l-101 -6 0 61
0 61 88 4 c48 1 97 4 110 5 21 2 22 0 16 -55z m-14 -117 c0 -3 -13 -124 -30
-271 -16 -147 -30 -271 -30 -276 0 -5 -31 -9 -70 -9 l-70 0 0 275 0 274 58 4
c105 6 142 7 142 3z m-74 -658 c-3 -29 -6 -64 -6 -78 0 -39 -12 -48 -68 -56
l-52 -7 0 97 0 96 66 0 67 0 -7 -52z m-20 -194 c-3 -9 -6 -31 -6 -50 l0 -34
-50 0 -50 0 0 50 0 50 56 0 c47 0 55 -3 50 -16z m-23 -201 c-2 -21 -22 -191
-43 -378 l-38 -340 -1 378 -1 377 44 0 44 0 -5 -37z"/>
</g>
</svg>
