<svg xmlns="http://www.w3.org/2000/svg" viewBox="0 0 5376.2 5093.04"><g id="Ebene_2" data-name="Ebene 2"><g id="Pfeil"><path d="M4484.75,461.18l-190.19,859.76c-8.87,40.09-58.51,54.57-87.54,25.54l-203.7-203.7L2590.43,2555.67a85,85,0,0,1-120.2,0L2136.5,2221.94a40,40,0,0,0-56.56,0L961,3340.88a85,85,0,0,1-120.21,0l-142-142a85,85,0,0,1,0-120.2l1349.3-1349.3a85,85,0,0,1,120.2,0l333.74,333.74a40,40,0,0,0,56.56,0L3741.15,880.61l-203.7-203.7c-29-29-14.55-78.67,25.54-87.54l859.76-190.19C4459.87,391,4493,424.06,4484.75,461.18Z" fill="#4c9cd9"/></g><g id="Konpass"><path d="M4872.74,2253.42l-569.46-63.2a1698.37,1698.37,0,0,0-32.75-267.3q-8.46-41.34-19-82.28L4508.85,1756l-265.15,55.41a1676.44,1676.44,0,0,0-157.46-379.79L4313,1283.26l-241.92,122.22q-26.09-44.18-54.8-86.69a1701.19,1701.19,0,0,0-181.08-224.24l405-455.95-455.95,405A1701.19,1701.19,0,0,0,3560,862.49q-42.48-28.69-86.7-54.81l122.22-241.91L3447.15,792.55A1677.57,1677.57,0,0,0,3067.36,635.1l55.4-265.16-84.6,257.35q-40.92-10.56-82.29-19a1697.18,1697.18,0,0,0-273.86-33L2618.69,4.71c-2.26-7-12.42-5.94-13.23,1.34l-63.21,569.47A1696.16,1696.16,0,0,0,2275,608.27q-41.32,8.46-82.27,19l-84.61-257.35,55.41,265.15a1677.49,1677.49,0,0,0-379.8,157.46L1635.29,565.77l122.22,241.92q-44.17,26.09-86.69,54.8a1701.93,1701.93,0,0,0-224.25,181.08l-455.94-405,405,455.94a1702.82,1702.82,0,0,0-181.09,224.25q-28.68,42.46-54.8,86.69L917.8,1283.26l226.78,148.39a1677.05,1677.05,0,0,0-157.45,379.79L722,1756l257.35,84.6q-10.56,40.93-19,82.29a1697.3,1697.3,0,0,0-33,273.87l-570.53,63.32c-7,2.26-5.94,12.42,1.34,13.23l569.46,63.21a1695.89,1695.89,0,0,0,32.75,267.29q8.46,41.34,19,82.29L722,2770.73l265.16-55.4a1677.05,1677.05,0,0,0,157.45,379.79L917.8,3243.5l241.91-122.22q26.1,44.19,54.8,86.7a1702.82,1702.82,0,0,0,181.09,224.25l-405,455.94,455.95-405a1701.19,1701.19,0,0,0,224.24,181.08q42.47,28.69,86.69,54.8L1635.29,3961l148.39-226.79a1676.44,1676.44,0,0,0,379.79,157.46l-55.4,265.15,84.6-257.34q40.92,10.55,82.28,19a1698.42,1698.42,0,0,0,273.87,33l63.33,570.53c2.25,7,12.42,5.95,13.23-1.34l63.2-569.46a1698.24,1698.24,0,0,0,267.29-32.75q41.34-8.46,82.29-19l84.6,257.34-55.41-265.15a1676.79,1676.79,0,0,0,379.8-157.46L3595.53,3961l-122.22-241.92q44.19-26.09,86.7-54.8a1701.84,1701.84,0,0,0,224.24-181.08l455.95,405-405-456A1701.84,1701.84,0,0,0,4016.31,3208q28.7-42.48,54.8-86.7L4313,3243.5l-226.79-148.38a1676.27,1676.27,0,0,0,157.46-379.8l265.15,55.41-257.34-84.6q10.55-40.92,19-82.29a1698.29,1698.29,0,0,0,33-273.87l570.53-63.32C4881.05,2264.4,4880,2254.23,4872.74,2253.42ZM4262,2185.64l-71.81-8A1574.8,1574.8,0,0,0,2694.54,688.23l-8-71.76C3536.86,652.76,4222.4,1336.22,4262,2185.64Zm-69.49,77.74q0-36.32-1.66-72.58l71.72,8q1.24,32.16,1.25,64.62ZM2615.41,3815.51h0V3690.84h0q44.82,0,89.2-2.73l-13.92,125.59Q2653.26,3815.48,2615.41,3815.51Zm72.49,23.34-8,71.72q-32.11,1.24-64.54,1.25h0v-71.31h0Q2651.68,3840.51,2687.9,3838.85ZM967,2263.38h71.32q0,36.28,1.65,72.52l-71.72-8Q967,2295.82,967,2263.38Zm96.32,0H1188q0,44.85,2.72,89.25L1065.1,2338.7Q1063.3,2301.26,1063.29,2263.38Zm149.67,0h364.53q0,3.26,0,6.5a1049.12,1049.12,0,0,0,8.39,126.58h0l-370-41Q1213,2309.79,1213,2263.38Zm2104.88-729.11h0c.6.56,1.21,1.14,1.81,1.73q5.88,5.68,11.66,11.48h0l-51.57,51.56-5.32,5.33h0q-9-9-18.14-17.66c-.61-.58-1.22-1.16-1.83-1.72l6-4.78Zm12.28,1443.82-55.7-55.69h0q7.26-7.24,14.31-14.61c1.69-1.78,3.39-3.55,5.07-5.34h0l49.74,62.17,1,1.23c-1.7,1.77-3.4,3.52-5.12,5.27q-4,4.11-8.08,8.18h0Zm-1411.18,9.65-6,4.77h0q-6.21-6-12.29-12l-1.18-1.17,5.33-5.33,51.57-51.56h0l1.18,1.17q9.27,9.26,18.78,18.2h0Zm-19.42-1440.26,55.74,55.74,1.14,1.16c-1.78,1.78-3.54,3.55-5.29,5.34q-7.11,7.21-14,14.56h0l-.89-1.12-49.84-62.26h0q3.9-4.07,7.86-8.09c1.77-1.79,3.53-3.56,5.31-5.33Zm1322.23,63.67h0c.61.55,1.23,1.13,1.84,1.7q10.93,10.23,21.52,20.82h0l-17.6,17.61h0q-11.6-11.61-23.56-22.7c-.62-.58-1.23-1.15-1.85-1.7l6-4.8ZM2955.46,2479.6,3235,2828.92l.85,1.07c-1.65,1.82-3.32,3.62-5,5.43q-10.46,11.23-21.3,22.08h0l-348-348q10.44-10.44,20-21.75Zm288.46,412.29-16.41-16.4h0q9.88-9.87,19.38-20c1.69-1.8,3.35-3.59,5-5.4h0l14.82,18.53.89,1.13c-1.67,1.8-3.34,3.58-5,5.37q-8.61,9.12-17.47,18h0Zm.74-71.7h0l-.78-1-266.4-332.92,0,0h0l359.94,207.26A844.62,844.62,0,0,1,3244.66,2820.19ZM3015,2479l-8.8-5.06,13-1.44,231-25.63h0l15.91,4.27,158,42.45a835.12,835.12,0,0,1-74.07,178.29Zm319.24-35.43-15.91-4.27,20.06-2.23,101.93-11.32h0c-.4,2.07-.82,4.13-1.24,6.18q-3.87,18.91-8.58,37.51Zm-370.68-180.22a346.55,346.55,0,0,0-41.2-164.42l29.5-36.86,4.59-5.74,1.92-2.4,32.14,3.57,6,.67,237.39,26.34,6.09.68,46.3,5.15,14.16,1.57,141.14,15.66h0c.45,2.37.88,4.74,1.31,7.11a841.23,841.23,0,0,1,13.18,148.66H2963.54Zm475.4-169.09-104.24-11.57h0l95.69-25.76q4.7,18.51,8.55,37.33Zm-172.33-19.14h0l-14.16-1.57-237-26.31h0l334.36-192.72a836.09,836.09,0,0,1,74.13,178.26Zm-293.19-32.54h0l-5.49-.61.49-.61,271.87-339.75h0l.56.61a846.54,846.54,0,0,1,96.41,130.66ZM3182,1643h0c.62.55,1.24,1.12,1.86,1.69q13.1,12,25.66,24.61h0l-348,348q-10.44-10.44-21.75-20l-8.2-73.94Zm-252.4,620.5c0,173.52-140.66,314.18-314.18,314.18S2301.25,2437,2301.25,2263.45s140.66-314.18,314.18-314.18S2929.61,2089.93,2929.61,2263.45Zm-133.53,719.23h0l25.76,95.69q-18.51,4.69-37.32,8.54h0l.64-5.78Zm-1.46-106.32-.62,5.56-5.58,50.36-1.72,15.53-15.07,135.91-.65,5.84c-1.16.23-2.33.45-3.5.66a841.24,841.24,0,0,1-152.07,13.8h0V2611.51a346.55,346.55,0,0,0,164.42-41.2l33.88,27.11,3,2.4,7.88,6.3-2.93,26.43-1.28,11.5ZM2436,2979.08l3.45-12.82h0l.7,6.32,12,108.18.82,7.49-5-1q-19.52-3.95-38.71-8.81Zm-421-68.26-6,4.79h0q-11.28-10.45-22.18-21.34l-1.18-1.17,17.61-17.6h0l1.18,1.17q11.91,11.88,24.22,23.23h0Zm256.55-868.72-276.55-345.41h0q10.26-11.23,20.92-22.09c1.76-1.79,3.52-3.57,5.3-5.34h0l348,348q-10.44,10.44-20,21.75l-69.67,7.73-4,.44Zm-285.9-408.43,16.46,16.46,1.14,1.16c-1.78,1.78-3.53,3.55-5.29,5.34q-9.7,9.87-19,20h0l-.84-1.06-14.9-18.6h0q8.46-9.11,17.16-18c1.76-1.79,3.52-3.57,5.3-5.34Zm-4.44,78.46c1.62-1.87,3.24-3.71,4.89-5.56h0l254,317.44,19.89,24.86-8.6,1h0l-15.44-19.3L1893.42,1833.2A845.67,845.67,0,0,1,1981.27,1712.13Zm243.38,340.66h0l-224.15,24.88-19.77,2.2h0l-173.88-46.73a835.21,835.21,0,0,1,74.07-178.3Zm-312.14,34.65h0l-119,13.2-3,.33h0q4.34-22,9.81-43.68Zm354.77,175.94a346.48,346.48,0,0,0,41.21,164.43L2283.58,2459l2.6,4.5-5.93,3.41-.82-1.41-2.8,3.5h0l-2,1.13-2.05,2.57-2-.22-42-4.66-243.9-27.06-68.11-7.55-121.86-13.52-5.51-.61h0a839.54,839.54,0,0,1-14.43-149.14c0-2.17,0-4.33,0-6.5h492.5ZM1797.52,2433.1l84.46,9.38,14.16,1.57-18.31,4.93-77.4,20.83q-3.79-15-7.06-30.21-.76-3.55-1.49-7.12Zm148.41,23.44,18.3-4.93h0l245.18,27.21,6,.67-10.12,5.83L1881.05,2672.2A835.25,835.25,0,0,1,1806.93,2494ZM2247.27,2490l10.13-5.83h0l5.51.61-267.66,334.49-4.71,5.88h0a845.56,845.56,0,0,1-97-131.28ZM2054.8,2879l-6,4.81h0q-13.44-12.27-26.32-25.12l-1.18-1.17,5.33-5.33,342.63-342.64q10.44,10.44,21.75,20l8.21,73.87Zm381.68-1350.38-1.72,15.52-2.43-9L2409,1448.4q16.79-4.26,33.84-7.83l3.51-.72h0Zm1.76,102.72,7.55-68.11,14-126h0a838.53,838.53,0,0,1,151.49-14.46c1.38,0,2.77,0,4.15,0v492.52A346.43,346.43,0,0,0,2451,1956.47l-44.85-35.89.83-7.53,4.66-42Zm353.12-70.84h0l-13.53-122h0q22.07,4.32,43.69,9.81Zm-176-162.77c-1.38,0-2.77,0-4.15,0a868.84,868.84,0,0,0-148.59,13.37h0l.65-5.87,2.24-20.23h0a890.14,890.14,0,0,1,145.7-12.6c1.38,0,2.76,0,4.15,0Zm-163.26-10.31-2.27,20.39-.65,5.82-3.5.68q-21.78,4.32-43.29,9.78l-6.54-24.32q26.08-6.63,52.75-11.71l3.5-.65Zm-27.38,215.8,2.43,9h0l-26.6,239.65-1.28,11.49-2.87-5L2206.59,1529a836,836,0,0,1,178.25-74.13Zm-33,297.16,2.87,5h0l-.61,5.51-340.37-272.36h0a843.91,843.91,0,0,1,131.28-97Zm-358.22-278h0l-1.56-1.26-18.1-14.49h0a895.65,895.65,0,0,1,145.92-108.74l12.46,21.61A863,863,0,0,0,2033.57,1622.43Zm-84.22,49.81c1.64-1.85,3.27-3.68,4.93-5.51h0l15,18.74.76,1c-1.66,1.84-3.29,3.68-4.91,5.53a861.73,861.73,0,0,0-93.72,128.56l-21.62-12.45A895,895,0,0,1,1949.35,1672.24Zm-90.43,170a867.44,867.44,0,0,0-76.4,184.42l-24.32-6.54a886.05,886.05,0,0,1,79.07-190.35ZM1776,2050.76q-6.66,26.35-11.64,53.11h0l-23.09,2.57-3.07.34h0q5.63-31.68,13.48-62.56Zm-26.26,212.62h0c0,2.17,0,4.33,0,6.5a869.34,869.34,0,0,0,13.36,146.25h0l-20.72-2.3-5.39-.6h0a889.89,889.89,0,0,1-12.59-143.35q0-3.24,0-6.5h25.34ZM1745,2427.27l20.72,2.3h0c.46,2.38.94,4.76,1.42,7.12q4,19.95,9,39.66l-24.32,6.55q-6.18-24.32-11-49.13-.69-3.54-1.36-7.11Zm37.67,73.22a867.33,867.33,0,0,0,76.46,184.37l-21.64,12.48A885.65,885.65,0,0,1,1758.3,2507Zm89,206a863.09,863.09,0,0,0,102.88,138.72h0l-11,13.78-4.71,5.89h0A895.7,895.7,0,0,1,1850,2719Zm153.19,213.18,13.68-10.94h0l1.88,1.67a862.21,862.21,0,0,0,132.24,97L2160.13,3029a895.71,895.71,0,0,1-139.5-102.81l-1.87-1.68Zm35.7-25.39-1.89-1.67,6-4.83,327.88-262.37-3.4,5.9-203.87,354.05A846.15,846.15,0,0,1,2060.48,2894.3Zm340.27-233.08,4.07-7.09h0l.07.59,27,243.37-3.44,12.82L2385.17,3072a835.61,835.61,0,0,1-178.29-74.06Zm2,441.53q23.91,6,48.16,10.7l5,.94h0l2.08,18.76.81,7.4-5-.9q-29.13-5.35-57.6-12.59ZM2615.41,3129h0a871.38,871.38,0,0,0,149.18-12.76l3.5-.62h0l-2.24,20.19-.66,5.91-3.49.59a892.1,892.1,0,0,1-146.29,12h0Zm163.93,4.48,2.26-20.37h0q23.55-4.57,46.79-10.46l6.54,24.32q-27.78,7.07-56.24,12.37h0Zm24.31-219h0l1.72-15.51,26.14-235.63h0l192.73,334.36A836,836,0,0,1,2846,3071.87Zm36.61-286-4.08-7.09h0l.61-5.51,7.62,6.1,331.08,264.93,1.65,1.33-5.8,5.17a845.76,845.76,0,0,1-125.47,91.79Zm351.22,281c1.93-1.73,3.85-3.45,5.77-5.2h0l18.08,14.47,1.58,1.27c-1.91,1.77-3.81,3.5-5.73,5.23A895.53,895.53,0,0,1,3071,3028.82l-12.46-21.62A862,862,0,0,0,3191.48,2909.53Zm85.05-49.5h0l-.82-1-14.93-18.66h0a861.07,861.07,0,0,0,98.64-134.11l21.62,12.45A896.18,896.18,0,0,1,3276.53,2860Zm95.38-175.46a866.75,866.75,0,0,0,76.39-184.42l24.32,6.54A885.22,885.22,0,0,1,3393.56,2697ZM3454.78,2476q5.89-23.33,10.48-46.95.6-3.08,1.16-6.17l3-.33,23.18-2.57h0c-.36,2.06-.74,4.12-1.12,6.16q-5.28,28.53-12.37,56.4Zm26.27-212.62h0a871.85,871.85,0,0,0-12.18-145.77q-.6-3.54-1.23-7.1l5.38.6,20.72,2.3h0c.41,2.36.8,4.73,1.18,7.09a891.55,891.55,0,0,1,11.47,142.88h-25.34Zm10.32-163.27-20.72-2.3-5.5-.61h0q-4.55-23.55-10.45-46.78l24.31-6.55q7.06,27.79,12.36,56.24Zm-43.17-73.84a866.34,866.34,0,0,0-76.46-184.38l21.64-12.47a885.65,885.65,0,0,1,79.14,190.3Zm-89-206a863.2,863.2,0,0,0-102.32-138.09l-.56-.61,4.71-5.89,11-13.78h0c.2.19.38.4.57.6a896.25,896.25,0,0,1,108.18,145.31Zm-147.17-218-13.68,10.94-6,4.82h0a861.54,861.54,0,0,0-134.11-98.64l12.45-21.62a896.26,896.26,0,0,1,141.37,104.5Zm-39.84,31.87h0l-333.17,266.6-.74.59h0v0l207.26-359.95A845,845,0,0,1,3172.23,1634.14ZM2826,1872.62h0L2799.63,1635l-.7-6.32h0l46.73-173.87a835.31,835.31,0,0,1,178.28,74.06Zm2-448.61q-26.36-6.66-53.12-11.63h0l-.82-7.42-2.08-18.75h0q31.68,5.63,62.57,13.49Zm-212.63-92.61c-1.38,0-2.77,0-4.15,0a938,938,0,0,0-141,11.18h0l.66-5.95,8.55-77.07h0a1010.47,1010.47,0,0,1,131.78-9.09c1.38,0,2.77,0,4.15,0Zm-149.28-69.94-8.6,77.43-.65,5.9c-1.17.19-2.34.4-3.5.6q-34.38,6-68.19,14.62l-19.47-72.37a26.31,26.31,0,0,0,5.4-7.38q45-11.19,91.52-18.29l3.49-.52Zm-94.38,144.81,6.55,24.32a867.33,867.33,0,0,0-184.37,76.46l-12.47-21.64A885.35,885.35,0,0,1,2371.75,1406.27Zm-119.11-1.62a934.22,934.22,0,0,0-91.84,44.91l-37.45-65a25.74,25.74,0,0,0,3.25-8.16,1007.31,1007.31,0,0,1,206.55-85.93,25.79,25.79,0,0,0,8.43,3.68l19.47,72.32A928.17,928.17,0,0,0,2252.64,1404.65Zm-113.5,57.41a928.26,928.26,0,0,0-158,118.44h0l-1.5-1.21-61.94-49.57h0a1019,1019,0,0,1,175.33-133.87,26.13,26.13,0,0,0,8,1.25h.64Zm-257.65,67.4q-2.65,2.65-5.3,5.34c-2,2-4,4-5.91,6h0l-1-1.21-89.87-112.25,102,102.06Zm-9.28,46.38c1.67-1.81,3.34-3.6,5-5.39h0l50,62.47.82,1c-1.67,1.82-3.32,3.63-5,5.46a928.32,928.32,0,0,0-109.19,148l-65-37.43c0-.21,0-.41,0-.62a25.9,25.9,0,0,0-1.27-8A1018.88,1018.88,0,0,1,1872.21,1575.84Zm-70.79,233.23a934.21,934.21,0,0,0-83,200.32l-72.2-19.41a25.61,25.61,0,0,0-3.77-8.59,1006.37,1006.37,0,0,1,85.82-206.48,26.15,26.15,0,0,0,8.17-3.26ZM1712,2033.53q-9.79,38.6-16.24,78h0l-79.91,8.86-3.29.37h0a1011.05,1011.05,0,0,1,19.68-101.19,26.33,26.33,0,0,0,7.47-5.44Zm-28.51,229.85h0q0,3.26,0,6.5a936.19,936.19,0,0,0,11.16,138.64h0l-77.92-8.64-5.12-.57h0a1013.74,1013.74,0,0,1-9.08-129.43q0-3.24,0-6.5h81Zm-64.74,149.88,78.11,8.67h0q.62,3.56,1.25,7.1,5.84,32.55,14,64.57l-72.28,19.45a26.23,26.23,0,0,0-7.5-5.51q-10.73-43.2-17.71-87.78c-.37-2.35-.73-4.72-1.08-7.08Zm27.5,123.95,72.34-19.47a934.09,934.09,0,0,0,83,200.26l-64.87,37.38a25.85,25.85,0,0,0-8.32-3.31,1007.05,1007.05,0,0,1-85.88-206.5A25.76,25.76,0,0,0,1646.2,2537.21Zm102.93,239.87,65-37.43a929.32,929.32,0,0,0,118.45,158h0l-46,57.55-4.73,5.9h0a1019,1019,0,0,1-133.9-175.37,26.06,26.06,0,0,0,1.29-8.09C1749.15,2777.44,1749.14,2777.26,1749.13,2777.08Zm132.37,220.23h0l1.18,1.17q5.08,5.08,10.24,10.06h0l-113.47,90.81Zm47-.55,57.54-46h0l1.85,1.7a928.46,928.46,0,0,0,151.61,112.47l-37.35,64.88-.69,0a26.09,26.09,0,0,0-8.14,1.3,1019.25,1019.25,0,0,1-169-127.79l-1.83-1.71Zm232.66,80.62a933,933,0,0,0,200.29,83l-19.4,72.2a25.91,25.91,0,0,0-8.57,3.77A1006.35,1006.35,0,0,1,2127,3150.54a26,26,0,0,0-3.25-8.24Zm20.64-35.85,12.47-21.65a867.75,867.75,0,0,0,184.41,76.39l-6.54,24.32A886.45,886.45,0,0,1,2181.76,3041.53Zm203.8,125.31q36.17,9.18,73,15.42c1.65.28,3.31.56,5,.82h0l8.43,76,.79,7.2c-1.64-.22-3.29-.46-4.94-.7q-48.92-7.17-96.24-19a26.33,26.33,0,0,0-5.44-7.47Zm229.85,28.52h0A939.24,939.24,0,0,0,2757,3184.71c1.17-.18,2.33-.35,3.49-.54h0l-8.54,77-.67,6c-1.16.17-2.32.32-3.48.47a1014.94,1014.94,0,0,1-132.39,8.63h0Zm150,64L2774,3182h0q36.16-6.19,71.68-15.22L2865.1,3239a26.13,26.13,0,0,0-5.51,7.49q-46.64,11.59-94.88,18.79h0Zm93.69-138.83-6.54-24.32a860,860,0,0,0,99.83-35.19,869.19,869.19,0,0,0,84.54-41.27l12.48,21.64A885.51,885.51,0,0,1,2859.07,3120.49Zm119.12,1.62A936.64,936.64,0,0,0,3070,3077.2L3107.4,3142a26,26,0,0,0-3.31,8.38,1007.08,1007.08,0,0,1-206.48,85.87,26,26,0,0,0-8.35-3.67l-19.48-72.34A928.17,928.17,0,0,0,2978.19,3122.11Zm113.5-57.41A928.93,928.93,0,0,0,3244,2951.52c1.91-1.75,3.81-3.49,5.7-5.26h0l62,49.59,1.48,1.19c-1.87,1.78-3.74,3.54-5.63,5.31a1018.69,1018.69,0,0,1-169.62,128.5,26,26,0,0,0-8.18-1.31h-.6Zm257.65-67.4q3.06-3.06,6.11-6.15c1.72-1.76,3.43-3.5,5.13-5.27h0l90.8,113.48-102-102.05h0Zm4.24-41h0l-.91-1.15-49.9-62.36h0a929.2,929.2,0,0,0,114.16-153.46l64.89,37.35c0,.19,0,.39,0,.58a26.13,26.13,0,0,0,1.32,8.2A1018.83,1018.83,0,0,1,3353.58,2956.31Zm75.83-238.63a933.16,933.16,0,0,0,83-200.31l72.24,19.41a25.76,25.76,0,0,0,3.77,8.5,1006.94,1006.94,0,0,1-85.76,206.41,26,26,0,0,0-8.39,3.32Zm89.47-224.45q9-35.58,15.21-71.82c.35-2,.69-4.1,1-6.15l3.12-.35,80.07-8.89h0c-.28,2.06-.58,4.1-.88,6.14q-7.12,48.24-18.76,94.93a26.18,26.18,0,0,0-7.58,5.54Zm28.51-229.85h0a940.82,940.82,0,0,0-10.13-138.18q-.53-3.54-1.07-7.08l5.22.58,77.83,8.65h0q.47,3.54.92,7.06a1016.63,1016.63,0,0,1,8.18,129h-81Zm70-149.29-78-8.66-5.34-.59h0q-6.18-36.15-15.22-71.67l72.29-19.46a26.14,26.14,0,0,0,7.47,5.44q11.6,46.66,18.81,94.94Zm-32.86-124.51-72.2,19.44a933.41,933.41,0,0,0-83.06-200.26l64.92-37.42a26.2,26.2,0,0,0,8.22,3.24A1007.11,1007.11,0,0,1,3588.26,1981,26.11,26.11,0,0,0,3584.49,1989.58ZM3481.6,1749.71l-64.87,37.39a928.9,928.9,0,0,0-117.87-157.36c-.19-.2-.38-.41-.57-.6l4.72-5.9,46-57.54h0c.2.19.39.39.58.59a1018.1,1018.1,0,0,1,133.24,174.6,26.2,26.2,0,0,0-1.29,8.12C3481.58,1749.24,3481.59,1749.48,3481.6,1749.71Zm-132.27-220.25h0q-4.8-4.8-9.63-9.5l-1.8-1.74,5.95-4.76,107.53-86Zm-41-4.23-57.49,46-6,4.81h0a928.13,928.13,0,0,0-153.46-114.17l37.42-65h.52a26,26,0,0,0,8.08-1.28,1018.16,1018.16,0,0,1,170.94,129.61Zm-238.62-75.85a932.77,932.77,0,0,0-200.3-83l19.42-72.24a25.78,25.78,0,0,0,8.49-3.76,1007,1007,0,0,1,206.44,85.77,26.14,26.14,0,0,0,3.32,8.31Zm-20.65,35.85-12.46,21.66a867.63,867.63,0,0,0-184.41-76.4l6.54-24.32A886.16,886.16,0,0,1,3049.06,1485.23Zm-203.79-125.31q-38.61-9.8-78-16.24h0l-.8-7.3-8.42-75.89h0a1003.55,1003.55,0,0,1,101.07,19.64,26.07,26.07,0,0,0,5.55,7.59Zm-229.86-134.46c-1.38,0-2.77,0-4.15,0a1045.12,1045.12,0,0,0-128.93,8.4h0l.67-6.06,40.37-363.9q45.63-3,92-3Zm-145.75,4.2-.67,6-3.48.5q-48.42,7-95.89,18.52a26.1,26.1,0,0,0-48,12.91A1031.16,1031.16,0,0,0,2211.4,1307q-47.62,20.13-92.68,44.73A26.11,26.11,0,0,0,2075,1371a26.32,26.32,0,0,0,.62,5.66,1036.34,1036.34,0,0,0-177.93,137h0l-1.41-1.14-135.3-108.27c-6.52-3.34-13,4.58-8.41,10.3l107.76,134.67.89,1.13c-1.69,1.79-3.36,3.57-5,5.37a1034.79,1034.79,0,0,0-127.65,168.15,25.68,25.68,0,0,0-5.65-.62A26.11,26.11,0,0,0,1703.6,1767q-24.43,44.88-44.54,92.33a1033,1033,0,0,0-39.54,110.57,26.11,26.11,0,0,0-12.89,48,1029.29,1029.29,0,0,0-19.84,105.65h0l-370.4,41.11c48.38-692.65,602-1248.28,1293.75-1299.86Zm-882,1180.16h0q.51,3.54,1,7.07,6.9,46.55,18,92.19a26.11,26.11,0,0,0,12.91,48,1035.12,1035.12,0,0,0,39.46,110.28q20.13,47.58,44.7,92.61a26.12,26.12,0,0,0,19.27,43.74,26.56,26.56,0,0,0,5.61-.61,1036.63,1036.63,0,0,0,137,178h0L1756.3,3117.88c-3.34,6.52,4.57,13,10.29,8.41l135.79-108.67h0l1.83,1.72a1035.36,1035.36,0,0,0,171.69,131,26.56,26.56,0,0,0-.59,5.54,26.12,26.12,0,0,0,43.71,19.3q44.89,24.47,92.38,44.57A1031.8,1031.8,0,0,0,2322,3259.27a26.11,26.11,0,0,0,48,12.88q49.79,12.09,100.7,19.19c1.65.23,3.3.46,4.94.67h0l41.1,370.38c-692.64-48.37-1248.27-602-1299.86-1293.74ZM2615.41,3301.3h0a1051.2,1051.2,0,0,0,129.55-8c1.16-.15,2.32-.29,3.48-.45h0l-41,369.95q-45.63,3-92,3h0Zm146.44-10.2h0q50.16-7.07,99.26-19a26.11,26.11,0,0,0,48-12.9,1032.76,1032.76,0,0,0,110.27-39.46q47.64-20.14,92.7-44.74a26.12,26.12,0,0,0,43.67-19.34,26.35,26.35,0,0,0-.59-5.51,1035.67,1035.67,0,0,0,172.38-131.7c1.88-1.77,3.74-3.54,5.6-5.33h0l136.72,109.4c6.51,3.34,13-4.58,8.41-10.3l-108.66-135.79h0A1037,1037,0,0,0,3502.4,2802.8a26.1,26.1,0,0,0,31.62-25.53,26,26,0,0,0-6.79-17.56q10.74-19.71,20.65-39.92,12.63-25.8,23.89-52.4a1033.08,1033.08,0,0,0,39.58-110.69,26.11,26.11,0,0,0,12.87-48q11.93-49.16,19-99.42.43-3.06.83-6.13l3.32-.37,367.07-40.74c-48.37,692.65-602,1248.28-1293.74,1299.86Zm891.49-1027.72h0a1049.88,1049.88,0,0,0-7.55-126.13c-.28-2.35-.58-4.71-.88-7.06l5,.56,364.93,40.52q3,45.67,3,92.12Zm-5.08-145.86-5.12-.57h0q-7.07-50.24-19-99.41a26.11,26.11,0,0,0-12.89-48,1033.12,1033.12,0,0,0-39.43-110.17q-20.16-47.67-44.78-92.77a26.11,26.11,0,0,0-24.86-43.1,1036.39,1036.39,0,0,0-136.42-177.3c-.19-.2-.38-.4-.58-.59l4.73-5.91,104.67-130.81c3.34-6.52-4.58-13-10.3-8.41l-129.82,103.88-6,4.78h0a1035.6,1035.6,0,0,0-173.61-132.76,26.38,26.38,0,0,0,.61-5.59,26.12,26.12,0,0,0-43.75-19.26q-44.83-24.42-92.26-44.49a1031.36,1031.36,0,0,0-110.67-39.58,26.11,26.11,0,0,0-48-12.88,1021.14,1021.14,0,0,0-105.56-19.81h0l-.79-7.16-40.32-363.24c692.65,48.38,1248.28,602,1299.86,1293.75Zm282.42-409.77A1426.17,1426.17,0,0,0,2711.29,839.09L2697.34,713.4c788.58,41.21,1423.2,673.75,1467.7,1461.48l-125.79-14A1414.21,1414.21,0,0,0,3930.68,1707.75ZM2615.41,686.26q-36.28,0-72.52,1.65l8-71.72q32.13-1.25,64.56-1.25Zm0,25V835.93q-44.85,0-89.24,2.72l13.93-125.58Q2577.53,711.27,2615.41,711.26ZM2513,839.54a1420,1420,0,0,0-695.65,240.18,1431.54,1431.54,0,0,0-517.16,628,1414.49,1414.49,0,0,0-109,459.75l-125.69,13.95c41.21-788.58,673.76-1423.2,1461.48-1467.69ZM1191.57,2365.85a1419.9,1419.9,0,0,0,240.18,695.64,1431.7,1431.7,0,0,0,628,517.17,1414.53,1414.53,0,0,0,459.76,109l13.95,125.7c-788.59-41.21-1423.21-673.75-1467.7-1461.48ZM2717.88,3687.22A1419.62,1419.62,0,0,0,3413.52,3447a1431.61,1431.61,0,0,0,517.16-628,1414.29,1414.29,0,0,0,109-459.76l125.69-14c-41.2,788.59-673.75,1423.21-1461.47,1467.71Zm1325-1423.84q0-44.88-2.73-89.32l125.58,14q1.8,37.45,1.82,75.37ZM2615.41,34.26V573.94q-30,0-60,1.07Zm-77.73,582.5-8,71.81A1574.8,1574.8,0,0,0,1040.26,2184.25l-71.76,8C1004.79,1341.93,1688.25,656.39,2537.68,616.76ZM386.21,2263.38H926q0,30,1.07,60Zm582.58,77.75,71.81,8A1574.87,1574.87,0,0,0,2536.28,3838.54l8,71.76C1694,3874,1008.42,3190.55,968.79,2341.13ZM2615.41,4492.67V3952.82h0q30,0,60-1.06ZM2693.16,3910l8-71.81A1574.87,1574.87,0,0,0,4190.57,2342.51l71.76-8C4226,3184.83,3542.58,3870.37,2693.16,3910ZM4304.85,2263.38q0-30-1.06-60.05l540.83,60.05Z" fill="#fff"/><path d="M2356.43,2263.54c0,143,116,259,259,259s259-116,259-259-116-259-259-259S2356.43,2120.5,2356.43,2263.54Zm359.82-.15a100.95,100.95,0,1,1-100.94-100.95A100.94,100.94,0,0,1,2716.25,2263.39Z" fill="#fff"/></g><g id="Typo"><text transform="translate(0 4982.73)" font-size="424.29" fill="#fff" font-family="LibreBaskerville-Bold, Libre Baskerville" font-weight="700" letter-spacing="0em">CASHFL<tspan x="1984.83" y="0" letter-spacing="-0.03em">O</tspan><tspan x="2371.79" y="0" letter-spacing="-0.04em">W</tspan><tspan x="2875" y="0"> </tspan><tspan x="2987.43" y="0" letter-spacing="-0.05em">K</tspan><tspan x="3315.83" y="0" letter-spacing="-0.01em">O</tspan><tspan x="3710.01" y="0">M</tspan><tspan x="4195.4" y="0" letter-spacing="-0.07em">P</tspan><tspan x="4471.62" y="0">ASS</tspan></text></g></g></svg>