<svg xmlns="http://www.w3.org/2000/svg" viewBox="0 0 5337.59 5024.95"><g id="Layer_2" data-name="Layer 2"><g id="typo"><path d="M4464.81,461.18l-190.19,859.76c-8.87,40.09-58.51,54.57-87.54,25.54l-203.7-203.7L2570.49,2555.67a85,85,0,0,1-120.2,0l-333.73-333.73a40,40,0,0,0-56.56,0L941.06,3340.88a85,85,0,0,1-120.21,0l-142-142a85,85,0,0,1,0-120.2l1349.3-1349.3a85,85,0,0,1,120.2,0l333.74,333.74a40,40,0,0,0,56.56,0L3721.21,880.61l-203.7-203.7c-29-29-14.55-78.67,25.54-87.54l859.76-190.19C4439.93,391,4473,424.06,4464.81,461.18Z" fill="#4c9cd9"/><path d="M3102.82,4156.82l-55.41-265.15a1676.79,1676.79,0,0,0,379.8-157.46L3575.59,3961l-122.22-241.92q44.19-26.09,86.7-54.8a1701.84,1701.84,0,0,0,224.24-181.08l456,405-405-456A1701.84,1701.84,0,0,0,3996.37,3208q28.7-42.48,54.8-86.7l241.92,122.22L4066.3,3095.12a1676.27,1676.27,0,0,0,157.46-379.8l265.15,55.41-257.35-84.6q10.56-40.92,19-82.29a1698.29,1698.29,0,0,0,33-273.87l570.52-63.32c7-2.25,5.95-12.42-1.34-13.23l-569.45-63.2a1698.37,1698.37,0,0,0-32.75-267.3q-8.46-41.34-19-82.28L4488.91,1756l-265.15,55.41a1676.44,1676.44,0,0,0-157.46-379.79l226.79-148.39-241.92,122.22q-26.09-44.18-54.8-86.69a1701.19,1701.19,0,0,0-181.08-224.24l405-455.95-456,405a1701.84,1701.84,0,0,0-224.24-181.08q-42.48-28.69-86.7-54.81l122.22-241.91L3427.21,792.55a1677.4,1677.4,0,0,0-379.8-157.45l55.41-265.16-84.6,257.35q-40.92-10.56-82.29-19a1697.16,1697.16,0,0,0-273.87-33L2598.74,4.71c-2.26-7-12.42-5.94-13.23,1.34l-63.2,569.47A1696,1696,0,0,0,2255,608.27q-41.33,8.46-82.28,19l-84.6-257.35,55.41,265.15a1677.84,1677.84,0,0,0-379.81,157.46L1615.35,565.77l122.22,241.92q-44.19,26.09-86.69,54.8a1701.93,1701.93,0,0,0-224.25,181.08l-455.94-405,405,455.94a1701.93,1701.93,0,0,0-181.08,224.25q-28.68,42.46-54.8,86.69L897.86,1283.26l226.78,148.39a1676.44,1676.44,0,0,0-157.46,379.79L702,1756l257.35,84.6q-10.56,40.93-19,82.29a1697.29,1697.29,0,0,0-33,273.87L336.8,2260.11c-7,2.26-5.94,12.42,1.34,13.23l569.46,63.21a1698.24,1698.24,0,0,0,32.75,267.29q8.46,41.34,19,82.29L702,2770.73l265.15-55.4a1676.44,1676.44,0,0,0,157.46,379.79L897.86,3243.5l241.91-122.22q26.09,44.19,54.8,86.7a1702,1702,0,0,0,181.09,224.25l-405,455.94,456-405a1701.19,1701.19,0,0,0,224.24,181.08q42.46,28.69,86.69,54.8L1615.35,3961l148.38-226.79a1676.79,1676.79,0,0,0,379.8,157.46l-55.4,265.15,84.6-257.34q40.92,10.55,82.28,19a1698.42,1698.42,0,0,0,273.87,33l63.32,570.53c2.25,7,12.42,5.95,13.23-1.34l63.21-569.46a1698.24,1698.24,0,0,0,267.29-32.75q41.34-8.46,82.29-19ZM4824.67,2263.38H4284.91q0-30-1.06-60.05Zm-4458.41,0H906q0,30,1.06,60Zm3877.65,0h-71.32q0-36.32-1.65-72.58l71.72,8Q4243.91,2230.92,4243.91,2263.38Zm-1.82-77.74-71.81-8A1574.8,1574.8,0,0,0,2674.6,688.23l-8-71.76C3516.92,652.76,4202.46,1336.22,4242.09,2185.64Zm-1433.64,917L2815,3127q-27.78,7.07-56.24,12.37h0l.65-5.85,2.26-20.37h0Q2785.21,3108.55,2808.45,3102.66Zm-43.88-15.76.64-5.78,10.92-98.44h0l25.76,95.69q-18.51,4.69-37.32,8.54Zm61.13,79.85,19.46,72.28a26.13,26.13,0,0,0-5.51,7.49q-46.64,11.59-94.88,18.79h0l.67-6L2754,3182h0Q2790.19,3175.78,2825.7,3166.75Zm503.4-1601h0c.2.19.39.39.58.59a1018.1,1018.1,0,0,1,133.24,174.6,26.2,26.2,0,0,0-1.29,8.12c0,.23,0,.47,0,.7l-64.87,37.39a928.9,928.9,0,0,0-117.87-157.36c-.19-.2-.38-.41-.57-.6l4.71-5.9ZM3318,1518.21l5.94-4.76,107.53-86-102,102h0q-4.8-4.8-9.63-9.5Zm15.68,1438.1h0l-.92-1.15-49.9-62.36h0A929.2,929.2,0,0,0,3397,2739.34l64.89,37.35c0,.19,0,.39,0,.58a26.13,26.13,0,0,0,1.32,8.2A1018.83,1018.83,0,0,1,3333.64,2956.31Zm7,29.57,90.8,113.48-102.05-102.05h0q3.06-3.06,6.11-6.15c1.71-1.76,3.43-3.5,5.13-5.27Zm-86.17-63.49h0q7.26-7.24,14.31-14.61c1.69-1.78,3.39-3.55,5.07-5.34h0l49.74,62.17,1,1.23c-1.7,1.77-3.41,3.52-5.12,5.27-2.67,2.74-5.38,5.47-8.08,8.18h0l-1.2-1.2-55.7-55.69Zm-13.65-82h0a861.07,861.07,0,0,0,98.64-134.11l21.61,12.45A894.93,894.93,0,0,1,3256.58,2860h0l-.83-1Zm168.65-122.66a933.16,933.16,0,0,0,83-200.31l72.24,19.41a25.76,25.76,0,0,0,3.77,8.5,1006.94,1006.94,0,0,1-85.76,206.41,26,26,0,0,0-8.39,3.32Zm39.46-600.08q-.6-3.54-1.23-7.1l5.37.6,20.72,2.3h0c.41,2.36.8,4.73,1.18,7.09a891.55,891.55,0,0,1,11.47,142.88h-25.34A871.85,871.85,0,0,0,3448.93,2117.6Zm50,375.63q9-35.58,15.21-71.82c.35-2,.68-4.1,1-6.15l3.12-.35,80.07-8.89h0c-.28,2.06-.57,4.1-.87,6.14q-7.12,48.24-18.76,94.93a26.18,26.18,0,0,0-7.58,5.54Zm28.51-229.85h0a940.82,940.82,0,0,0-10.13-138.18q-.53-3.54-1.07-7.08l5.21.58,77.83,8.65h0q.47,3.54.92,7.06a1016.63,1016.63,0,0,1,8.18,129h-81Zm70-149.29-78-8.66-5.33-.59h0q-6.18-36.15-15.23-71.67l72.3-19.46a26.14,26.14,0,0,0,7.47,5.44q11.59,46.66,18.81,94.94h0Zm-32.85-124.51-72.2,19.44a933.41,933.41,0,0,0-83.06-200.26l64.92-37.42a26.2,26.2,0,0,0,8.22,3.24A1007.11,1007.11,0,0,1,3568.32,1981,26.11,26.11,0,0,0,3564.55,1989.58Zm-203.64-181.8-21.61,12.46A863.2,863.2,0,0,0,3237,1682.15l-.56-.61,4.7-5.89,11-13.78h0c.2.19.38.4.57.6A896.25,896.25,0,0,1,3360.91,1807.78Zm-49.55-260.29-51.57,51.56-5.31,5.33h0q-9-9-18.14-17.66c-.61-.58-1.22-1.16-1.83-1.72l6-4.78,57.42-45.94h0c.6.56,1.21,1.14,1.81,1.73q5.88,5.68,11.66,11.48h0Zm-23-22.26-57.49,46-6,4.81h0a928.13,928.13,0,0,0-153.46-114.17l37.42-65h.52a26,26,0,0,0,8.08-1.28,1018.16,1018.16,0,0,1,170.94,129.61h0Zm-238.61-75.85a932.77,932.77,0,0,0-200.3-83l19.42-72.24a25.78,25.78,0,0,0,8.49-3.76,1007,1007,0,0,1,206.44,85.77,26.14,26.14,0,0,0,3.32,8.31Zm-20.65,35.85-12.46,21.66a867.63,867.63,0,0,0-184.41-76.4l6.54-24.32A886.16,886.16,0,0,1,3029.12,1485.23Zm-3.48,56.15a845,845,0,0,1,126.65,92.76h0l-333.17,266.6-.74.59h0v0Zm12.67-22,12.45-21.62a896.26,896.26,0,0,1,141.37,104.5h0l-13.68,10.94-6,4.82h0A861.54,861.54,0,0,0,3038.31,1519.38Zm149.83,102.7,13.66-10.93h0c.61.55,1.23,1.13,1.84,1.7q10.93,10.23,21.52,20.82h0l-17.59,17.61h0q-11.59-11.61-23.56-22.7c-.62-.58-1.23-1.15-1.85-1.7Zm32.18,79.57h0l.56.61a846.54,846.54,0,0,1,96.41,130.66l-363.82,209.69h0l-5.5-.61.49-.61Zm-224.85,345.62,334.36-192.72A836.09,836.09,0,0,1,3404,2032.81l-157.29,42.34h0l-14.17-1.57-237-26.31h0Zm319.29,35.44,95.69-25.76q4.7,18.51,8.55,37.33h0l-104.24-11.57h0Zm78.32-156.28a867,867,0,0,0-41.28-84.54l21.64-12.47a885.65,885.65,0,0,1,79.14,190.3l-24.32,6.55A862.64,862.64,0,0,0,3393.08,1926.43Zm66,117.43q7.07,27.79,12.36,56.24h0l-20.72-2.3-5.49-.61h0q-4.55-23.55-10.45-46.78Zm-13.75,385.19c.39-2.06.78-4.11,1.16-6.17l3-.33,23.18-2.57c-.36,2.06-.73,4.12-1.11,6.16q-5.28,28.53-12.37,56.4l-24.33-6.54Q3440.74,2452.67,3445.32,2429.05Zm7.36,77.64A885.22,885.22,0,0,1,3373.62,2697L3352,2684.57a872.09,872.09,0,0,0,41.11-84.24,862.13,862.13,0,0,0,35.28-100.18ZM3419.12,2432q-3.87,18.91-8.58,37.51l-96.26-25.87-15.91-4.27,20.05-2.23,101.93-11.32C3420,2427.85,3419.53,2429.91,3419.12,2432Zm-15.06,61.66A835.12,835.12,0,0,1,3330,2671.91L2995,2479l-8.8-5.06,12.94-1.44,231-25.63h0l15.9,4.27Zm-86.59,199.93a844.62,844.62,0,0,1-92.75,126.64h0l-.79-1-266.4-332.92v0h0ZM3227,2855.48c1.68-1.8,3.35-3.59,5-5.4h0l14.82,18.53.9,1.13c-1.67,1.8-3.35,3.58-5,5.37q-8.61,9.12-17.47,18h0l-1.2-1.2-16.41-16.4h0Q3217.46,2865.6,3227,2855.48Zm-2.93,96c1.9-1.75,3.81-3.49,5.7-5.26h0l62,49.59,1.49,1.19c-1.87,1.78-3.75,3.54-5.63,5.31a1018.69,1018.69,0,0,1-169.62,128.5,26,26,0,0,0-8.18-1.31h-.6l-37.39-64.85A928.93,928.93,0,0,0,3224,2951.52Zm-32.77-26.22a895.53,895.53,0,0,1-140.18,103.52l-12.46-21.62a862,862,0,0,0,132.93-97.67c1.92-1.73,3.85-3.45,5.77-5.2h0l18.08,14.47,1.59,1.27C3195.07,2921.84,3193.16,2923.57,3191.25,2925.3ZM3050.1,3077.2l37.36,64.82a26,26,0,0,0-3.31,8.38,1007.08,1007.08,0,0,1-206.48,85.87,26,26,0,0,0-8.35-3.67l-19.48-72.34a933.41,933.41,0,0,0,200.26-83.06Zm-211,43.29-6.54-24.32a860,860,0,0,0,99.83-35.19,869.19,869.19,0,0,0,84.54-41.27l12.48,21.64A885.51,885.51,0,0,1,2839.13,3120.49Zm2,151.6a26.11,26.11,0,0,0,48-12.9,1032.76,1032.76,0,0,0,110.27-39.46q47.64-20.14,92.7-44.74a26.12,26.12,0,0,0,43.67-19.34,26.35,26.35,0,0,0-.59-5.51,1035.67,1035.67,0,0,0,172.38-131.7c1.87-1.77,3.74-3.54,5.6-5.33h0L3450,3122.51c6.52,3.34,13-4.58,8.41-10.3l-108.66-135.79h0a1037,1037,0,0,0,132.74-173.61,26.1,26.1,0,0,0,31.62-25.53,26,26,0,0,0-6.79-17.56q10.74-19.71,20.65-39.92,12.63-25.8,23.89-52.4a1033.08,1033.08,0,0,0,39.58-110.69,26.11,26.11,0,0,0,12.87-48q11.92-49.16,19-99.42c.29-2.05.56-4.08.82-6.13l3.32-.37,367.08-40.74c-48.37,692.65-602,1248.28-1293.74,1299.86l41.15-370.82h0Q2792.07,3284,2841.17,3272.09ZM3633.4,2263.38h0a1049.88,1049.88,0,0,0-7.55-126.13c-.28-2.35-.58-4.71-.88-7.06l5,.56,364.94,40.52q3,45.67,3,92.12Zm277.34-555.63A1426.2,1426.2,0,0,0,2691.35,839.09L2677.4,713.4C3466,754.61,4100.6,1387.15,4145.1,2174.88l-125.79-14A1414.21,1414.21,0,0,0,3910.74,1707.75ZM3994,2158.11l-365.7-40.59-5.11-.57h0q-7.07-50.24-19-99.41a26.11,26.11,0,0,0-12.89-48,1033.12,1033.12,0,0,0-39.43-110.17q-20.16-47.67-44.78-92.77a26.11,26.11,0,0,0-24.86-43.1,1036.9,1036.9,0,0,0-136.42-177.3c-.19-.2-.38-.4-.58-.59l4.72-5.91,104.67-130.81c3.34-6.52-4.58-13-10.3-8.41l-129.82,103.88-6,4.78h0a1036,1036,0,0,0-173.61-132.76,26.38,26.38,0,0,0,.61-5.59,26.12,26.12,0,0,0-43.75-19.26q-44.84-24.42-92.26-44.49a1031.36,1031.36,0,0,0-110.67-39.58,26.11,26.11,0,0,0-48-12.88,1021.14,1021.14,0,0,0-105.56-19.81h0l-.8-7.16-40.31-363.24C3386.8,912.74,3942.43,1466.33,3994,2158.11ZM2738.12,1260.48a1003.55,1003.55,0,0,1,101.07,19.64,26.07,26.07,0,0,0,5.55,7.59l-19.41,72.21q-38.61-9.8-78-16.24h0l-.81-7.3-8.42-75.89h0Zm14,125.72q31.68,5.63,62.57,13.49L2808.1,1424q-26.35-6.66-53.12-11.63h0l-.83-7.42-2.08-18.75h0Zm5.81,52.31q22.07,4.32,43.69,9.81l-30.15,112.19h0l-13.54-122h0ZM2779,1628.67l46.73-173.87A835.31,835.31,0,0,1,3004,1528.86l-197.94,343.76h0L2779.68,1635l-.7-6.32h0ZM3162.06,1643h0c.62.55,1.24,1.12,1.86,1.69q13.09,12,25.65,24.61h0l-347.95,348q-10.44-10.44-21.75-20l-8.2-73.94ZM2931.89,2062.1l4.59-5.74,1.92-2.4,32.14,3.57,6,.67,237.39,26.34,6.09.68,46.3,5.15,14.17,1.57,141.13,15.66h0c.45,2.37.88,4.74,1.31,7.11a842.18,842.18,0,0,1,13.18,148.66H2943.59a346.55,346.55,0,0,0-41.2-164.42ZM3215,2828.92l.86,1.07c-1.65,1.82-3.33,3.62-5,5.43q-10.46,11.23-21.3,22.08h0l-348-348q10.44-10.44,20-21.75l73.9-8.2Zm-59.5,58,1.66,1.33-5.8,5.17a845.76,845.76,0,0,1-125.47,91.79l-205.61-356.72-4.08-7.09h0l.61-5.51,7.62,6.1ZM3004.3,2997.74a836,836,0,0,1-178.25,74.13l-42.34-157.34h0l1.72-15.51,26.14-235.63h0Zm-202.6-365.19-1.28,11.5-25.75,232.31-.62,5.56-5.58,50.36-1.72,15.53-15.07,135.91-.65,5.84c-1.16.23-2.32.45-3.49.66a841.24,841.24,0,0,1-152.07,13.8h0V2611.51a346.55,346.55,0,0,0,164.42-41.2l33.88,27.11,3,2.4,7.88,6.3ZM2595.47,3129a871.38,871.38,0,0,0,149.18-12.76l3.49-.62h0l-2.24,20.19-.66,5.91-3.48.59a892.1,892.1,0,0,1-146.29,12h0V3129Zm0,66.34a939.24,939.24,0,0,0,141.59-10.65c1.17-.18,2.32-.35,3.48-.54h0l-8.54,77-.67,6c-1.16.17-2.31.32-3.47.47a1014.94,1014.94,0,0,1-132.39,8.63h0v-80.94Zm0,105.94a1051.2,1051.2,0,0,0,129.55-8l3.47-.45h0l-41,369.95q-45.61,3-92,3h0V3301.3Zm102.47,385.92A1419.74,1419.74,0,0,0,3393.58,3447a1431.61,1431.61,0,0,0,517.16-628,1414.29,1414.29,0,0,0,109-459.76l125.69-14C4104.25,3133.89,3471.7,3768.51,2684,3813Zm1325-1423.84q0-44.88-2.72-89.32l125.58,14q1.8,37.45,1.81,75.37ZM2595.46,34.26V573.94q-30,0-60,1.07Zm-64.55,581.93q32.12-1.25,64.55-1.25v71.32q-36.27,0-72.51,1.65Zm64.55,95.07V835.93q-44.84,0-89.23,2.72l13.93-125.58Q2557.59,711.27,2595.46,711.26Zm-169.67,703.06q-21.78,4.32-43.29,9.78l-6.54-24.32q26.09-6.63,52.75-11.71l3.49-.65h0l-2.27,20.39-.65,5.82Zm.59,25.53h0l-9.85,88.77-1.72,15.52-2.42-9L2389,1448.4q16.78-4.26,33.84-7.83C2424,1440.32,2425.21,1440.08,2426.38,1439.85ZM2365.25,1360l-19.47-72.37a26.31,26.31,0,0,0,5.4-7.38q45-11.19,91.52-18.29l3.48-.52h0l-8.6,77.43-.65,5.9c-1.17.19-2.33.4-3.49.6Q2399.06,1351.42,2365.25,1360ZM1866.54,2955.19l-4.72,5.9h0a1019,1019,0,0,1-133.9-175.37,26.06,26.06,0,0,0,1.29-8.09c0-.18,0-.36,0-.54l65-37.43a929.32,929.32,0,0,0,118.45,158h0Zm6.44,53.36h0l-113.47,90.81,102-102.05h0l1.18,1.17q5.09,5.08,10.24,10.06Zm-20.71-1432.71c1.66-1.81,3.34-3.6,5-5.39h0l50,62.47.83,1c-1.67,1.82-3.33,3.63-5,5.46a928.32,928.32,0,0,0-109.19,148L1729,1750c0-.21,0-.41,0-.62a25.9,25.9,0,0,0-1.27-8A1018.88,1018.88,0,0,1,1852.27,1575.84Zm-2.91-36.19-89.87-112.25,102.06,102.06h0q-2.65,2.65-5.3,5.34c-2,2-4,4-5.91,6h0Zm81.81,70.07q-7.11,7.21-14,14.56h0l-.9-1.12-49.84-62.26h0q3.9-4.07,7.86-8.09c1.76-1.79,3.53-3.56,5.31-5.33h0l55.74,55.74,1.15,1.16C1934.68,1606.16,1932.91,1607.93,1931.17,1609.72Zm18.17,75.75.77,1q-2.49,2.76-4.91,5.53a861.73,861.73,0,0,0-93.72,128.56l-21.62-12.45a895,895,0,0,1,99.55-135.84c1.63-1.85,3.27-3.68,4.93-5.51h0Zm-167.86,123.6a934.21,934.21,0,0,0-83,200.32l-72.2-19.41a25.61,25.61,0,0,0-3.77-8.59,1006.37,1006.37,0,0,1,85.82-206.48,26.15,26.15,0,0,0,8.17-3.26Zm-51.61,460.81a869.34,869.34,0,0,0,13.36,146.25h0l-20.72-2.3-5.38-.6h0a889.89,889.89,0,0,1-12.59-143.35q0-3.24,0-6.5h25.34C1729.84,2265.55,1729.85,2267.71,1729.87,2269.88ZM1692,2033.53q-9.79,38.6-16.24,78h0l-79.91,8.86-3.29.37h0a1011.05,1011.05,0,0,1,19.68-101.19,26.33,26.33,0,0,0,7.47-5.44Zm-28.51,229.85h0q0,3.26,0,6.5a936.19,936.19,0,0,0,11.16,138.64h0l-77.92-8.64-5.11-.57h0a1013.74,1013.74,0,0,1-9.08-129.43q0-3.24,0-6.5h81Zm-64.75,149.88,78.11,8.67h0q.62,3.56,1.25,7.1,5.84,32.55,14,64.57l-72.28,19.45a26.23,26.23,0,0,0-7.5-5.51q-10.72-43.2-17.71-87.78c-.37-2.35-.73-4.72-1.08-7.08Zm27.51,123.95,72.34-19.47A934.09,934.09,0,0,0,1781.65,2718l-64.87,37.38a25.85,25.85,0,0,0-8.32-3.31,1007.05,1007.05,0,0,1-85.88-206.5A25.76,25.76,0,0,0,1626.26,2537.21ZM1830,2719l21.62-12.46a863.09,863.09,0,0,0,102.88,138.72h0l-11,13.78-4.7,5.89h0A895.7,895.7,0,0,1,1830,2719Zm54.86,255,51.57-51.56h0l1.18,1.17q9.27,9.26,18.78,18.2h0l-57.43,46-6,4.77h0q-6.21-6-12.29-12l-1.18-1.17Zm23.62,22.8,57.54-46h0l1.85,1.7a928.46,928.46,0,0,0,151.61,112.47l-37.35,64.88-.69,0a26.09,26.09,0,0,0-8.14,1.3,1019.25,1019.25,0,0,1-169-127.79l-1.83-1.71Zm232.67,80.62a933,933,0,0,0,200.29,83l-19.4,72.2a25.91,25.91,0,0,0-8.57,3.77,1006.35,1006.35,0,0,1-206.45-85.79,26,26,0,0,0-3.25-8.24Zm20.64-35.85,12.47-21.65a867.75,867.75,0,0,0,184.41,76.39l-6.54,24.32A886.45,886.45,0,0,1,2161.82,3041.53Zm3.48-56.15a846.15,846.15,0,0,1-124.76-91.08l-1.89-1.67,6-4.83,327.89-262.37-3.4,5.9Zm-12.66,22L2140.19,3029a895.71,895.71,0,0,1-139.5-102.81l-1.87-1.68,6-4.82,13.68-10.94h0l1.88,1.67A862.21,862.21,0,0,0,2152.64,3007.38Zm-143.87-107.49-13.66,10.93-6,4.79h0q-11.28-10.45-22.18-21.34l-1.18-1.17,17.6-17.6h0l1.18,1.17q11.91,11.88,24.22,23.23h0Zm-33.45-80.64-4.7,5.88h0a845.56,845.56,0,0,1-97-131.28L2227.33,2490l10.13-5.83h0l5.51.61Zm210-333.93L1861.11,2672.2A835.25,835.25,0,0,1,1787,2494l139-37.41,18.3-4.93h0l245.18,27.21,6,.67ZM1857.89,2449l-77.4,20.83q-3.79-15-7.06-30.21-.77-3.55-1.49-7.12l5.63.62,84.46,9.38,14.17,1.57Zm-60,151.35a867.9,867.9,0,0,0,41.27,84.53l-21.64,12.48a885.65,885.65,0,0,1-79.14-190.3l24.32-6.55A862.7,862.7,0,0,0,1797.87,2600.33Zm-66-117.43q-6.18-24.32-11-49.13-.69-3.54-1.36-7.11l5.5.61,20.72,2.3h0c.46,2.38.94,4.76,1.42,7.12q4,19.95,9,39.66Zm12.59-379h0l-23.09,2.57-3.07.34h0q5.63-31.68,13.48-62.56l24.32,6.54Q1749.44,2077.11,1744.46,2103.87Zm-6.2-83.8a886.05,886.05,0,0,1,79.07-190.35l21.65,12.47a867.44,867.44,0,0,0-76.4,184.42Zm32.34,80.9q4.34-22,9.81-43.68l112.16,30.15h0l-119,13.2-3,.33Zm16.29-67.83a835.21,835.21,0,0,1,74.07-178.3l343.75,198h0l-224.15,24.88-19.76,2.2h0Zm86.59-199.94a845.67,845.67,0,0,1,87.85-121.07c1.61-1.87,3.24-3.71,4.89-5.56h0l254,317.44,19.89,24.86-8.59,1h0l-15.44-19.3Zm85.57-156.58h0l-.85-1.06-14.9-18.6h0q8.46-9.11,17.16-18,2.63-2.68,5.3-5.34h0l16.46,16.46,1.15,1.16c-1.78,1.78-3.54,3.55-5.29,5.34Q1968.38,1666.5,1959.05,1676.62Zm2.18-96.12h0l-1.51-1.21-61.94-49.57h0a1019,1019,0,0,1,175.33-133.87,26.13,26.13,0,0,0,8,1.25h.64l37.44,65A928.26,928.26,0,0,0,1961.23,1580.5Zm32.73,26.18a895.65,895.65,0,0,1,145.92-108.74l12.46,21.61a863,863,0,0,0-138.71,102.88h0l-1.57-1.26-18.1-14.49h0Zm146.9-157.12-37.45-65a25.74,25.74,0,0,0,3.25-8.16,1007.31,1007.31,0,0,1,206.55-85.93,25.79,25.79,0,0,0,8.43,3.68l19.47,72.32a933,933,0,0,0-200.25,83.06Zm210.95-43.29,6.55,24.32A867.33,867.33,0,0,0,2174,1507.05l-12.47-21.64A885.35,885.35,0,0,1,2351.81,1406.27Zm93.76-170.11q-48.42,7-95.89,18.52a26.1,26.1,0,0,0-48,12.91A1031.16,1031.16,0,0,0,2191.46,1307q-47.62,20.13-92.68,44.73A26.11,26.11,0,0,0,2055,1371a26.32,26.32,0,0,0,.62,5.66,1036.34,1036.34,0,0,0-177.93,137h0l-1.42-1.14L1741,1404.26c-6.52-3.34-13,4.58-8.41,10.3l107.76,134.67.9,1.13c-1.69,1.79-3.37,3.57-5,5.37a1034.79,1034.79,0,0,0-127.65,168.15,25.68,25.68,0,0,0-5.65-.62,26.11,26.11,0,0,0-19.22,43.78q-24.44,44.88-44.54,92.33a1033,1033,0,0,0-39.54,110.57,26.11,26.11,0,0,0-12.89,48,1029.29,1029.29,0,0,0-19.84,105.65h0l-370.39,41.11c48.38-692.65,602-1248.28,1293.75-1299.86l-40.49,364.82-.67,6Zm-888,1033.72a1049.12,1049.12,0,0,0,8.39,126.58h0l-369.94-41q-3-45.64-3-92h364.53Q1557.55,2266.64,1557.57,2269.88ZM2039.84,948.11A1426.2,1426.2,0,0,0,1171.18,2167.5l-125.69,13.95C1086.7,1392.87,1719.24,758.25,2507,713.76l-14,125.78A1414.21,1414.21,0,0,0,2039.84,948.11ZM1168,2263.38h0q0,44.85,2.72,89.25l-125.58-13.93q-1.8-37.44-1.81-75.32H1168Zm3.61,102.47a1419.9,1419.9,0,0,0,240.18,695.64,1431.7,1431.7,0,0,0,628,517.17,1414.47,1414.47,0,0,0,459.76,109l14,125.7C1725,3772.16,1090.34,3139.62,1045.84,2351.89Zm25.3,2.81,370.8,41.16h0q.51,3.54,1,7.07,6.9,46.55,18,92.19a26.11,26.11,0,0,0,12.91,48,1035.12,1035.12,0,0,0,39.46,110.28q20.13,47.58,44.7,92.61a26.12,26.12,0,0,0,19.27,43.74,26.56,26.56,0,0,0,5.61-.61,1036.63,1036.63,0,0,0,137,178h0l-109.39,136.71c-3.34,6.52,4.57,13,10.29,8.41l135.79-108.67h0l1.83,1.72a1035.36,1035.36,0,0,0,171.69,131,26.56,26.56,0,0,0-.59,5.54,26.12,26.12,0,0,0,43.71,19.3q44.9,24.47,92.38,44.57A1031.8,1031.8,0,0,0,2302,3259.27a26.11,26.11,0,0,0,48,12.88q49.78,12.09,100.7,19.19c1.64.23,3.29.46,4.94.67h0l41.11,370.38C1804.14,3614,1248.52,3060.44,1196.93,2368.66Zm1251,896.9q-48.91-7.17-96.24-19a26.33,26.33,0,0,0-5.44-7.47l19.42-72.29q36.16,9.18,73,15.42c1.64.28,3.3.56,5,.82h0l8.43,76,.8,7.2C2451.17,3266,2449.52,3265.8,2447.88,3265.56Zm-14-125.9q-29.13-5.35-57.6-12.59l6.53-24.32q23.91,6,48.16,10.7l5,.94h0l2.08,18.76.82,7.4C2437.21,3140.27,2435.56,3140,2433.91,3139.66Zm-5.82-52.4q-19.52-3.95-38.71-8.81l26.7-99.37,3.44-12.82h0l.7,6.32,12,108.18.83,7.49C2431.4,3087.93,2429.74,3087.6,2428.09,3087.26Zm-19.57-176.35L2365.23,3072a835.61,835.61,0,0,1-178.29-74.06l193.87-336.68,4.07-7.09h0l.07.59,27,243.37ZM2034.85,2879l-6,4.81h0q-13.44-12.27-26.32-25.12l-1.18-1.17,5.32-5.33,342.63-342.64q10.44,10.44,21.75,20l8.21,73.87Zm231.38-415.56-5.92,3.41-.82-1.41-2.8,3.5h0l-2,1.13-2,2.57-2-.22-42-4.66-243.9-27.06-68.11-7.55-121.86-13.52-5.5-.61h0a839.54,839.54,0,0,1-14.43-149.14c0-2.17,0-4.33,0-6.5h492.49a346.48,346.48,0,0,0,41.21,164.43L2263.63,2459Zm-10.54-416.31-4-5-276.55-345.41h0q10.26-11.23,20.92-22.09,2.63-2.68,5.3-5.34h0l348,348q-10.44,10.44-20,21.75l-69.67,7.73Zm-222-408.61h0a843.91,843.91,0,0,1,131.28-97l206.83,358.84,2.86,5h0l-.61,5.51ZM2186.65,1529a836,836,0,0,1,178.25-74.13l39.93,148.34,2.42,9h0l-26.6,239.65-1.28,11.49-2.86-5Zm200.38,384,4.66-42,26.6-239.72,7.55-68.11,14-126h0a838.53,838.53,0,0,1,151.49-14.46c1.37,0,2.76,0,4.14,0v492.52a346.43,346.43,0,0,0-164.41,41.21l-44.85-35.89Zm204.29-515.29a868.84,868.84,0,0,0-148.59,13.37h0l.65-5.87,2.24-20.23h0a890.14,890.14,0,0,1,145.7-12.6c1.37,0,2.75,0,4.14,0v25.34C2594.08,1397.74,2592.69,1397.74,2591.32,1397.76Zm0-66.34a938,938,0,0,0-141,11.18h0l.66-5.95,8.55-77.07h0a1010.47,1010.47,0,0,1,131.78-9.09c1.37,0,2.76,0,4.14,0v80.94C2594.08,1331.4,2592.69,1331.4,2591.32,1331.42Zm0-105.94a1045.12,1045.12,0,0,0-128.93,8.4h0l.67-6.06,40.37-363.9q45.64-3,92-3v364.53C2594.08,1225.46,2592.69,1225.46,2591.32,1225.48Zm-73.58-608.72-8,71.81A1574.87,1574.87,0,0,0,1020.31,2184.25l-71.76,8C984.85,1341.93,1668.31,656.39,2517.74,616.76ZM947,2263.38h71.32q0,36.28,1.65,72.52l-71.72-8Q947,2295.82,947,2263.38Zm1.82,77.75,71.81,8A1574.87,1574.87,0,0,0,2516.34,3838.54l8,71.76C1674,3874,988.48,3190.55,948.85,2341.13Zm1332.45-77.68c0-173.52,140.66-314.18,314.18-314.18s314.18,140.66,314.18,314.18S2769,2577.63,2595.48,2577.63,2281.3,2437,2281.3,2263.45Zm314.16,2229.22V3952.82h0q30,0,60-1.06Zm64.55-582.1q-32.12,1.24-64.54,1.25h0v-71.31h0q36.27,0,72.49-1.66Zm-64.54-95.06h0V3690.84h0q44.82,0,89.2-2.73l-13.92,125.59Q2633.33,3815.48,2595.47,3815.51Zm77.74,94.49,8-71.81A1574.87,1574.87,0,0,0,4170.63,2342.51l71.76-8C4206.09,3184.83,3522.64,3870.37,2673.21,3910Z" fill="#fff"/><path d="M2854.48,2263.54c0-143-116-259-259-259s-259,116-259,259,116,259,259,259S2854.48,2406.58,2854.48,2263.54Zm-360.07-.15a100.95,100.95,0,1,1,101,100.94A100.95,100.95,0,0,1,2494.41,2263.39Z" fill="#fff"/><path d="M250.55,4974q-27.8,22.91-70.22,22.91-52.62,0-79.56-35.43T73.83,4860.33q0-33.1,7-59.62t20.36-45a91.69,91.69,0,0,1,32.89-28.43q19.5-10,44.55-10,36.48,0,62.16,22.49t34.58,61.52h17L300.83,4694H280L272,4720.31q-26.31-16.12-48.79-23.34a157.82,157.82,0,0,0-48.37-7.21q-39,0-71.07,12.52a157,157,0,0,0-91,90.16Q0,4824.25,0,4862.87q0,36.91,12.09,67T46.25,4981q22.05,21,53.46,32.46t70,11.45q66.6,0,113.28-37.76l5.94,33.52h19.95v-115H290.22Q278.33,4951.14,250.55,4974Z" fill="#fff"/><path d="M644.71,4990.37q-7-6.57-13.15-18.88t-15.06-33.94L515.09,4689.76H483.7L372.11,4969.37a86.67,86.67,0,0,1-8.07,15.06,36.93,36.93,0,0,1-10,10,46.39,46.39,0,0,1-13.15,5.94,117.6,117.6,0,0,1-17.61,3.4v17H439.57v-17q-19.1,0-28.64-3.4t-9.55-16.12q0-17.4,19.94-62.37H541.4l9.76,25.46q5.08,13.57,8.06,22.91t3,15.27q0,10.18-8.91,13.58T524,5003.31v17.4H684.39v-17.4a133.72,133.72,0,0,1-23.55-3.82A38.11,38.11,0,0,1,644.71,4990.37Zm-213.63-94,50.49-128.56h1.7l48.8,128.56Z" fill="#fff"/><path d="M907.77,4866.9q-13.37-13.36-34.36-25t-50.71-23.12q-22.07-8.06-36.06-14.64t-22.07-12.94q-8.05-6.37-11-13.37a40.41,40.41,0,0,1-3-15.91q0-20.37,16.34-33.31t42.64-12.94a74.85,74.85,0,0,1,50.07,18.46q21.63,18.45,31.82,53.25H908l-4.67-91.65H893.14l-7.64,21.21a150,150,0,0,0-37.76-20.36,120.87,120.87,0,0,0-40.74-6.79q-23.34,0-42.64,6.58a99,99,0,0,0-33.09,18.45,83,83,0,0,0-21.43,28.43,86.06,86.06,0,0,0-7.64,36.49q0,34.36,23.76,59.61t73.41,44.34q24.6,9.35,40.09,16.55t24.4,14.21q8.91,7,12.09,14.43a48.82,48.82,0,0,1-1.91,39,50.18,50.18,0,0,1-14.42,16.54,69.29,69.29,0,0,1-22.49,10.82,103.06,103.06,0,0,1-28.85,3.82q-38.62,0-64.92-23.12t-32.25-63.44H694.57l6.36,108.2h10.18l8.49-25.46q21.63,15.7,42,22.7t45.83,7q28,0,51.13-7.21t39.88-19.94a91.29,91.29,0,0,0,26.09-30.55,83.76,83.76,0,0,0,9.34-39.46,82,82,0,0,0-6.37-32.67Q921.14,4880.27,907.77,4866.9Z" fill="#fff"/><path d="M1301.94,4993.77q-4.87-5.31-6.36-15.28a182.41,182.41,0,0,1-1.49-26.09V4762.31a178,178,0,0,1,1.49-25.88q1.47-9.75,5.72-15.27a21.91,21.91,0,0,1,12.1-7.64q7.85-2.12,20.58-2.55v-17H1187.17v17a155.58,155.58,0,0,1,23.12,2.76q8.7,1.92,13.37,7.22t6.36,14.42a136.3,136.3,0,0,1,1.7,24v81H1074.31v-78.07a179.71,179.71,0,0,1,1.48-25.88q1.49-9.75,6.15-15.27t13.37-7.64q8.68-2.12,23.12-2.55v-17H972.05v17a126.25,126.25,0,0,1,20.58,2.76q7.85,1.92,12.09,7.22t5.73,14.42a155.2,155.2,0,0,1,1.49,24v196a139.9,139.9,0,0,1-1.7,24.18q-1.71,9.34-6.37,14.43t-13.36,7.21q-8.7,2.13-23.13,2.55v17h155.3v-17q-15.71-.42-25.25-2.55t-14.64-7.42q-5.08-5.31-6.79-15.28a161.61,161.61,0,0,1-1.69-26.09v-85.71h157.41v88.68a139.9,139.9,0,0,1-1.7,24.18q-1.69,9.34-7,14.43t-14.85,7.21q-9.54,2.13-25.24,2.55v17h155.71v-17q-14.43-.42-23.12-2.55T1301.94,4993.77Z" fill="#fff"/><path d="M1372.58,4694v17a126.25,126.25,0,0,1,20.58,2.76q7.85,1.92,12.09,7.22t5.73,14.42a155.2,155.2,0,0,1,1.49,24v196a139.9,139.9,0,0,1-1.7,24.18q-1.69,9.34-6.36,14.43t-13.58,7.21a116.44,116.44,0,0,1-22.91,2.55v17h168.87v-17q-20.37-.42-32.46-2.55t-18.67-7.42q-6.59-5.31-8.7-15.28t-2.12-26.09v-82.32q25,0,41.15,2.13t25.67,7.85a34.75,34.75,0,0,1,14.22,16.54q4.66,10.83,7.21,28.64h15.7v-132.8h-15.7q-1.69,17.4-5.94,28a34.52,34.52,0,0,1-14,16.76q-9.76,6.17-26.1,8.28t-42.21,2.12V4725q0-7.21,7.63-7.22H1541q20.37,0,34.37,3.4t22.91,11.24a51.66,51.66,0,0,1,13.79,20.37q4.88,12.51,7.42,30.76h17.82l-5.09-89.53Z" fill="#fff"/><path d="M1930.53,4960.88a59,59,0,0,1-18,22.28q-11.25,8.28-27.8,11.24t-41.15,3q-22.07,0-36.92-2.33t-23.76-8.49a32.34,32.34,0,0,1-12.51-17.39q-3.61-11.23-3.61-29.07V4762.31a178,178,0,0,1,1.49-25.88q1.47-9.75,6.15-15.27t13.36-7.64q8.7-2.12,23.13-2.55v-17H1664.5v17a126.1,126.1,0,0,1,20.57,2.76q7.85,1.92,12.1,7.22t5.72,14.42a155.2,155.2,0,0,1,1.49,24v196a139.9,139.9,0,0,1-1.7,24.18q-1.7,9.34-6.36,14.43t-13.58,7.21a116.44,116.44,0,0,1-22.91,2.55v17h292.34l6.79-96.32h-17Q1937.31,4946.89,1930.53,4960.88Z" fill="#fff"/><path d="M2293.93,4739a180.27,180.27,0,0,0-57.49-36.07q-33.09-13.14-71.28-13.15t-71.28,13.15a180.21,180.21,0,0,0-57.5,36.07,168.19,168.19,0,0,0-38.39,53.88q-14,31-14,67a151,151,0,0,0,14,64.49,162.12,162.12,0,0,0,38.61,52.41,185.92,185.92,0,0,0,57.7,35.21,200.49,200.49,0,0,0,141.72,0,183.4,183.4,0,0,0,57.49-35.21,166.6,166.6,0,0,0,38.61-52.41,149.31,149.31,0,0,0,14.21-64.49q0-36.06-14-67A168.21,168.21,0,0,0,2293.93,4739Zm-28.85,178.84q-7.42,25.24-21.43,42.85a95.72,95.72,0,0,1-33.94,27.16q-20,9.54-44.55,9.54-25,0-44.76-9.54a96.29,96.29,0,0,1-33.74-27.16q-14-17.6-21.42-42.85t-7.43-56.65q0-33.09,7.43-59.61t21.42-45.4a95.27,95.27,0,0,1,33.74-28.85q19.72-10,44.76-10,24.6,0,44.55,10a94.69,94.69,0,0,1,33.94,28.85q14,18.89,21.43,45.4t7.42,59.61Q2272.5,4892.58,2265.08,4917.82Z" fill="#fff"/><path d="M2758.32,4711q19.09,0,28.22,4t9.12,17.18q0,14-10.19,42.43l-57.28,163.78-53.46-171q-3.39-11-5.3-19.52a69.06,69.06,0,0,1-1.91-14.85q0-12.73,8.49-17.19t26.3-4.45V4694H2552.54v17.4a134.7,134.7,0,0,1,17.39,3.18,36.15,36.15,0,0,1,22.91,17.61,118.85,118.85,0,0,1,8.49,18.67l-68.74,187.54-59.4-171q-3.39-8.91-5.3-14.85t-3.18-10a42.79,42.79,0,0,1-1.7-7.21,50.19,50.19,0,0,1-.42-6.58q0-9.31,8.06-13.36t29.7-4V4694H2340v17.4a92.87,92.87,0,0,1,21.22,2.12,38.15,38.15,0,0,1,16.55,8.91q7.64,6.8,14.42,19.94a328.35,328.35,0,0,1,14.85,34.79L2497,5025h35.22l84-224L2690,5025h37.76L2830,4745.34q6.78-18.66,19.73-26.52a54.93,54.93,0,0,1,29.06-7.85v-17h-120.5Z" fill="#fff"/><path d="M3277.65,4981.67l-124.74-151.89,75.52-78.92q12.74-13.15,21.43-21a106.28,106.28,0,0,1,15.7-12.1,41.45,41.45,0,0,1,14-5.51,124.77,124.77,0,0,1,16.34-1.7V4694H3180.06v17q16.56,0,22.7,2.55t6.16,7.21q0,7.23-9.76,17.82l-109.9,118v-94.2a178,178,0,0,1,1.49-25.88q1.48-9.75,6.15-15.27t13.37-7.64q8.68-2.12,23.12-2.55v-17H2987v17a110.1,110.1,0,0,1,20.58,3q7.85,2.13,12.09,7.22t5.73,14.42a156.17,156.17,0,0,1,1.48,23.76v196a141.05,141.05,0,0,1-1.69,24.18q-1.71,9.34-6.37,14.43t-13.58,7.21a116.34,116.34,0,0,1-22.91,2.55v17h147.23v-17q-13.16-.42-21-2.55a21.79,21.79,0,0,1-12.09-7.64q-4.24-5.51-5.73-15.27a177.86,177.86,0,0,1-1.49-25.88v-56l21.22-22.06,75.1,92.49q5.09,6,8.06,10a62.64,62.64,0,0,1,4.46,6.78,33.23,33.23,0,0,1,2.12,4.67,12.78,12.78,0,0,1,.63,4c0,4-2.54,6.79-7.63,8.49s-13.44,2.69-25,3v17h157v-17q-17-.85-27.79-5.94T3277.65,4981.67Z" fill="#fff"/><path d="M3624.93,4739a180.05,180.05,0,0,0-57.49-36.07q-33.09-13.14-71.28-13.15t-71.28,13.15a180.16,180.16,0,0,0-57.49,36.07,168.06,168.06,0,0,0-38.4,53.88q-14,31-14,67a151,151,0,0,0,14,64.49,162.12,162.12,0,0,0,38.61,52.41,185.92,185.92,0,0,0,57.7,35.21,200.49,200.49,0,0,0,141.72,0,183.4,183.4,0,0,0,57.49-35.21,166.6,166.6,0,0,0,38.61-52.41,149.31,149.31,0,0,0,14.21-64.49q0-36.06-14-67A168.06,168.06,0,0,0,3624.93,4739Zm-28.85,178.84q-7.42,25.24-21.42,42.85a95.84,95.84,0,0,1-33.95,27.16q-20,9.54-44.55,9.54-25,0-44.76-9.54a96.17,96.17,0,0,1-33.73-27.16q-14-17.6-21.43-42.85t-7.43-56.65q0-33.09,7.43-59.61t21.43-45.4a95.15,95.15,0,0,1,33.73-28.85q19.72-10,44.76-10,24.6,0,44.55,10a94.81,94.81,0,0,1,33.95,28.85q14,18.89,21.42,45.4t7.43,59.61Q3603.51,4892.58,3596.08,4917.82Z" fill="#fff"/><path d="M4123.27,4992.28q-5.09-6.78-6.79-19.09t-1.69-33.52V4775a276.9,276.9,0,0,1,1.48-31.61q1.48-12.51,6.15-19.73a24.08,24.08,0,0,1,13.37-10q8.69-2.74,22.7-2.76v-17h-123.9l-98,247.37h-1.7L3836,4694H3707.46v17q14.43,0,23.13,2.76a24.36,24.36,0,0,1,13.36,9.76q4.66,7,6.37,18.88a217.76,217.76,0,0,1,1.69,29.7v170.57q0,19.95-1.69,31.61t-7,18q-5.31,6.36-15.07,8.7t-25.46,2.76v17h130.69v-17q-15.7-.42-25.25-2.55t-14.64-8.91q-5.09-6.78-6.78-19.09t-1.7-33.52v-195.6h1.7l118,280.88h31.4l114.13-280.88h2.12v198.57q0,19.95-1.69,31.61t-7,18q-5.31,6.36-14.85,8.7t-25.25,2.76v17h159.54v-17q-15.7-.42-25.25-2.55T4123.27,4992.28Z" fill="#fff"/><path d="M4333.29,4878.57q67.89,0,103.53-24t35.64-69.8q0-45-33.09-67.89T4341.78,4694H4195v17a126.25,126.25,0,0,1,20.58,2.76q7.84,1.92,12.09,7.22t5.73,14.42a155.2,155.2,0,0,1,1.49,24v196a139.9,139.9,0,0,1-1.7,24.18q-1.69,9.34-6.37,14.43t-13.57,7.21a116.44,116.44,0,0,1-22.91,2.55v17h168.44v-17q-20,0-31.82-1.7t-18.67-7.21q-6.8-5.52-8.91-15.49t-2.12-26.09v-74.68ZM4297.23,4725q0-7.21,7.64-7.22h32.67q34.36,0,50.49,17.4t16.12,49.22q0,35.64-19.09,52.19t-60.25,16.54h-27.58Z" fill="#fff"/><path d="M4767.56,4990.37q-7-6.57-13.15-18.88t-15.06-33.94l-101.41-247.79h-31.4L4495,4969.37a86.69,86.69,0,0,1-8.06,15.06,36.93,36.93,0,0,1-10,10,46.51,46.51,0,0,1-13.15,5.94,117.86,117.86,0,0,1-17.61,3.4v17h116.26v-17q-19.1,0-28.65-3.4t-9.54-16.12q0-17.4,19.94-62.37h120.08l9.75,25.46q5.1,13.57,8.07,22.91t3,15.27q0,10.18-8.91,13.58t-29.28,4.24v17.4h160.38v-17.4a133.72,133.72,0,0,1-23.55-3.82A38.13,38.13,0,0,1,4767.56,4990.37Zm-213.63-94,50.49-128.56h1.7l48.79,128.56Z" fill="#fff"/><path d="M5030.62,4866.9q-13.36-13.36-34.37-25t-50.7-23.12q-22.06-8.06-36.07-14.64t-22.06-12.94q-8.07-6.37-11-13.37a40.41,40.41,0,0,1-3-15.91q0-20.37,16.33-33.31t42.65-12.94a74.82,74.82,0,0,1,50.06,18.46q21.65,18.45,31.82,53.25h16.55l-4.66-91.65H5016l-7.64,21.21a149.82,149.82,0,0,0-37.76-20.36,120.81,120.81,0,0,0-40.73-6.79q-23.34,0-42.64,6.58a98.92,98.92,0,0,0-33.1,18.45,83.13,83.13,0,0,0-21.42,28.43,85.91,85.91,0,0,0-7.64,36.49q0,34.36,23.76,59.61t73.4,44.34q24.6,9.35,40.1,16.55t24.4,14.21q8.91,7,12.09,14.43a48.82,48.82,0,0,1-1.91,39,50.22,50.22,0,0,1-14.43,16.54,69.09,69.09,0,0,1-22.49,10.82,103.06,103.06,0,0,1-28.85,3.82q-38.61,0-64.91-23.12T4834,4912.51h-16.55l6.37,108.2H4834l8.49-25.46q21.63,15.7,42,22.7t45.82,7q28,0,51.13-7.21t39.89-19.94a91.4,91.4,0,0,0,26.09-30.55,83.75,83.75,0,0,0,9.33-39.46,82.13,82.13,0,0,0-6.36-32.67Q5044,4880.27,5030.62,4866.9Z" fill="#fff"/><path d="M5331.23,4895.12q-6.36-14.85-19.73-28.22t-34.37-25q-21-11.67-50.7-23.12-22.07-8.06-36.07-14.64t-22.06-12.94q-8.07-6.37-11-13.37a40.41,40.41,0,0,1-3-15.91q0-20.37,16.33-33.31t42.65-12.94a74.82,74.82,0,0,1,50.06,18.46q21.65,18.45,31.83,53.25h16.54l-4.66-91.65h-10.19l-7.63,21.21a149.87,149.87,0,0,0-37.77-20.36,120.81,120.81,0,0,0-40.73-6.79q-23.34,0-42.64,6.58a98.92,98.92,0,0,0-33.1,18.45,83.13,83.13,0,0,0-21.42,28.43,86.06,86.06,0,0,0-7.64,36.49q0,34.36,23.76,59.61t73.4,44.34q24.61,9.35,40.1,16.55t24.4,14.21q8.91,7,12.09,14.43a48.82,48.82,0,0,1-1.91,39,50.1,50.1,0,0,1-14.43,16.54,69.13,69.13,0,0,1-22.48,10.82,103.18,103.18,0,0,1-28.86,3.82q-38.61,0-64.91-23.12t-32.25-63.44h-16.55l6.37,108.2h10.18l8.49-25.46q21.63,15.7,42,22.7t45.83,7q28,0,51.12-7.21t39.89-19.94a91.29,91.29,0,0,0,26.09-30.55,83.75,83.75,0,0,0,9.33-39.46A82.13,82.13,0,0,0,5331.23,4895.12Z" fill="#fff"/></g></g></svg>