<svg xmlns="http://www.w3.org/2000/svg" viewBox="0 0 4526.75 4526.76"><g id="Layer_2" data-name="Layer 2"><g id="typo"><path d="M4132.72,461.18l-190.19,859.76c-8.87,40.09-58.51,54.57-87.54,25.54l-203.7-203.7L2238.4,2555.67a85,85,0,0,1-120.2,0l-333.73-333.73a40,40,0,0,0-56.56,0L609,3340.88a85,85,0,0,1-120.21,0l-142-142a85,85,0,0,1,0-120.2l1349.3-1349.3a85,85,0,0,1,120.2,0L2150,2063.14a40,40,0,0,0,56.56,0L3389.12,880.61l-203.7-203.7c-29-29-14.55-78.67,25.54-87.54l859.76-190.19C4107.84,391,4140.93,424.06,4132.72,461.18Z" fill="#4c9cd9"/><path d="M4520.7,2253.42l-569.46-63.2a1697.19,1697.19,0,0,0-32.75-267.3q-8.46-41.34-19-82.28L4156.82,1756l-265.16,55.41a1677.05,1677.05,0,0,0-157.45-379.79L3961,1283.26l-241.93,122.22q-26.09-44.18-54.8-86.69a1700.3,1700.3,0,0,0-181.07-224.24l405-455.95-456,405A1701.28,1701.28,0,0,0,3208,862.49q-42.46-28.69-86.69-54.81L3243.5,565.77,3095.11,792.55A1677.05,1677.05,0,0,0,2715.32,635.1l55.41-265.16-84.6,257.35q-40.93-10.56-82.29-19a1697.3,1697.3,0,0,0-273.87-33L2266.65,4.71c-2.26-7-12.42-5.94-13.23,1.34l-63.2,569.47a1695.87,1695.87,0,0,0-267.3,32.75q-41.34,8.46-82.28,19L1756,369.94l55.41,265.15a1677.84,1677.84,0,0,0-379.81,157.46L1283.26,565.77l122.22,241.92q-44.19,26.09-86.7,54.8a1701.84,1701.84,0,0,0-224.24,181.08L638.6,638.6l405,455.94a1701.93,1701.93,0,0,0-181.08,224.25q-28.69,42.46-54.8,86.69L565.77,1283.26l226.78,148.39a1676.44,1676.44,0,0,0-157.46,379.79L369.94,1756l257.34,84.6q-10.54,40.93-19,82.29a1698.42,1698.42,0,0,0-33,273.87L4.71,2260.11c-7,2.26-5.94,12.42,1.34,13.23l569.46,63.21a1698.24,1698.24,0,0,0,32.75,267.29q8.46,41.34,19,82.29l-257.34,84.6,265.15-55.4a1676.44,1676.44,0,0,0,157.46,379.79L565.77,3243.5l241.91-122.22q26.09,44.19,54.8,86.7a1701.2,1701.2,0,0,0,181.09,224.25l-405,455.94,455.94-405a1702.49,1702.49,0,0,0,224.24,181.08q42.48,28.69,86.7,54.8L1283.26,3961l148.38-226.79a1676.79,1676.79,0,0,0,379.8,157.46L1756,4156.82l84.59-257.34q40.92,10.55,82.29,19a1698.29,1698.29,0,0,0,273.87,33l63.32,570.53c2.25,7,12.42,5.95,13.23-1.34l63.2-569.46a1698.37,1698.37,0,0,0,267.3-32.75q41.34-8.46,82.28-19l84.61,257.34-55.41-265.15a1676.44,1676.44,0,0,0,379.79-157.46L3243.5,3961l-122.22-241.92q44.17-26.09,86.69-54.8a1701.19,1701.19,0,0,0,224.24-181.08l456,405-405-456A1701,1701,0,0,0,3664.27,3208q28.7-42.48,54.8-86.7L3961,3243.5l-226.79-148.38a1676.89,1676.89,0,0,0,157.45-379.8l265.16,55.41-257.35-84.6q10.56-40.92,19-82.29a1697.16,1697.16,0,0,0,33-273.87L4522,2266.65C4529,2264.4,4528,2254.23,4520.7,2253.42Zm-4486.53,10H573.94q0,30,1.06,60ZM3910,2185.64l-71.81-8A1574.8,1574.8,0,0,0,2342.51,688.23l-8-71.76C3184.82,652.76,3870.37,1336.22,3910,2185.64Zm-1433.65,917,6.54,24.32q-27.78,7.07-56.24,12.37h0l.65-5.85,2.26-20.37h0Q2453.11,3108.55,2476.35,3102.66Zm-43.87-15.76.64-5.78,10.92-98.44h0l25.76,95.69q-18.51,4.69-37.32,8.54Zm61.12,79.85,19.46,72.28a26.13,26.13,0,0,0-5.51,7.49q-46.64,11.59-94.88,18.79h0l.67-6,8.58-77.34h0Q2458.09,3175.78,2493.6,3166.75ZM2997,1565.7h0c.2.19.39.39.58.59a1018.1,1018.1,0,0,1,133.24,174.6,26.2,26.2,0,0,0-1.29,8.12c0,.23,0,.47,0,.7l-64.87,37.39a928.9,928.9,0,0,0-117.87-157.36l-.56-.6,4.71-5.9Zm-11.14-47.49,5.94-4.76,107.53-86-102,102h0q-4.8-4.8-9.63-9.5C2987.06,1519.37,2986.47,1518.78,2985.87,1518.21Zm15.67,1438.1h0l-.92-1.15-49.9-62.36h0a929.2,929.2,0,0,0,114.16-153.46l64.89,37.35c0,.19,0,.39,0,.58a26.13,26.13,0,0,0,1.32,8.2A1018.83,1018.83,0,0,1,3001.54,2956.31Zm7,29.57,90.8,113.48-102-102.05h0q3.06-3.06,6.11-6.15c1.72-1.76,3.44-3.5,5.14-5.27Zm-86.17-63.49h0q7.26-7.24,14.31-14.61c1.7-1.78,3.4-3.55,5.08-5.34h0l49.74,62.17,1,1.23c-1.7,1.77-3.41,3.52-5.13,5.27q-4,4.11-8.08,8.18h0l-1.2-1.2-55.7-55.69Zm-13.65-82h0a861.07,861.07,0,0,0,98.64-134.11l21.62,12.45A896.18,896.18,0,0,1,2924.49,2860h0l-.83-1Zm168.64-122.66a933.16,933.16,0,0,0,83-200.31l72.24,19.41a25.76,25.76,0,0,0,3.77,8.5,1006.94,1006.94,0,0,1-85.76,206.41,26,26,0,0,0-8.39,3.32Zm39.46-600.08q-.6-3.54-1.23-7.1l5.38.6,20.72,2.3h0c.41,2.36.8,4.73,1.18,7.09a891.55,891.55,0,0,1,11.47,142.88H3129A871.85,871.85,0,0,0,3116.83,2117.6Zm50,375.63q9-35.58,15.21-71.82c.35-2,.69-4.1,1-6.15l3.12-.35,80.07-8.89h0c-.28,2.06-.58,4.1-.88,6.14q-7.12,48.24-18.76,94.93a26.18,26.18,0,0,0-7.58,5.54Zm28.51-229.85h0a940.82,940.82,0,0,0-10.13-138.18q-.53-3.54-1.07-7.08l5.22.58,77.83,8.65h0q.47,3.54.92,7.06a1016.63,1016.63,0,0,1,8.18,129h-81Zm70-149.29-78-8.66-5.34-.59h0q-6.18-36.15-15.22-71.67L3239,2013.7a26.14,26.14,0,0,0,7.47,5.44q11.6,46.66,18.81,94.94Zm-32.86-124.51-72.2,19.44a933.41,933.41,0,0,0-83.06-200.26l64.92-37.42a26.2,26.2,0,0,0,8.22,3.24A1007.11,1007.11,0,0,1,3236.22,1981,26.11,26.11,0,0,0,3232.45,1989.58Zm-203.64-181.8-21.61,12.46a863.2,863.2,0,0,0-102.32-138.09l-.56-.61,4.71-5.89,11-13.78h0c.19.19.37.4.56.6A896.25,896.25,0,0,1,3028.81,1807.78Zm-49.54-260.29-51.57,51.56-5.31,5.33h0q-9-9-18.14-17.66l-1.82-1.72,6-4.78,57.42-45.94h0c.59.56,1.2,1.14,1.8,1.73q5.88,5.68,11.66,11.48h0Zm-23-22.26-57.49,46-6,4.81h0a928.13,928.13,0,0,0-153.46-114.17l37.42-65h.52a26,26,0,0,0,8.08-1.28,1018.16,1018.16,0,0,1,170.94,129.61h0Zm-238.62-75.85a932.77,932.77,0,0,0-200.3-83l19.42-72.24a25.78,25.78,0,0,0,8.49-3.76,1007,1007,0,0,1,206.44,85.77,26.14,26.14,0,0,0,3.32,8.31ZM2697,1485.23l-12.46,21.66a867.63,867.63,0,0,0-184.41-76.4l6.54-24.32A886.16,886.16,0,0,1,2697,1485.23Zm-3.48,56.15a845,845,0,0,1,126.65,92.76h0L2487,1900.75l-.74.59h0v0Zm12.67-22,12.45-21.62A896.26,896.26,0,0,1,2860,1602.26h0l-13.68,10.94-6,4.82h0A861.54,861.54,0,0,0,2706.21,1519.38Zm149.84,102.7,13.66-10.93h0l1.83,1.7q10.93,10.23,21.52,20.82h0l-17.59,17.61h0q-11.6-11.61-23.56-22.7c-.62-.58-1.22-1.15-1.84-1.7Zm32.18,79.57h0l.55.61a846.54,846.54,0,0,1,96.41,130.66l-363.82,209.69h0l-5.5-.61.49-.61Zm-224.86,345.62,334.36-192.72a836.09,836.09,0,0,1,74.13,178.26l-157.29,42.34h0l-14.17-1.57-237-26.31h0Zm319.29,35.44,95.69-25.76q4.7,18.51,8.55,37.33h0l-104.24-11.57h0ZM3061,1926.43a867,867,0,0,0-41.28-84.54l21.64-12.47a885.65,885.65,0,0,1,79.14,190.3l-24.32,6.55A862.64,862.64,0,0,0,3061,1926.43Zm66,117.43q7.07,27.79,12.36,56.24h0l-20.72-2.3-5.5-.61h0q-4.55-23.55-10.45-46.78Zm-13.75,385.19c.4-2.06.79-4.11,1.17-6.17l3-.33,23.18-2.57c-.36,2.06-.74,4.12-1.12,6.16q-5.28,28.53-12.37,56.4l-24.32-6.54Q3108.64,2452.67,3113.22,2429.05Zm7.36,77.64A885.22,885.22,0,0,1,3041.52,2697l-21.65-12.46a866.75,866.75,0,0,0,76.39-184.42ZM3087,2432q-3.87,18.91-8.58,37.51l-96.26-25.87-15.91-4.27,20.06-2.23,101.93-11.32C3087.86,2427.85,3087.44,2429.91,3087,2432ZM3072,2493.62a835.12,835.12,0,0,1-74.07,178.29L2662.94,2479l-8.8-5.06,13-1.44,231-25.63h0l15.91,4.27Zm-86.59,199.93a844.62,844.62,0,0,1-92.75,126.64h0l-.79-1-266.4-332.92v0h0Zm-90.52,161.93c1.69-1.8,3.36-3.59,5-5.4h0l14.82,18.53.9,1.13c-1.67,1.8-3.35,3.58-5,5.37q-8.61,9.12-17.47,18h0l-1.2-1.2-16.41-16.4h0Q2885.36,2865.6,2894.85,2855.48Zm-2.93,96c1.91-1.75,3.82-3.49,5.71-5.26h0l62,49.59,1.49,1.19c-1.87,1.78-3.75,3.54-5.64,5.31a1018.69,1018.69,0,0,1-169.62,128.5,26,26,0,0,0-8.18-1.31h-.6l-37.39-64.85A928.93,928.93,0,0,0,2891.92,2951.52Zm-32.77-26.22A895.53,895.53,0,0,1,2719,3028.82l-12.46-21.62a862,862,0,0,0,132.93-97.67c1.93-1.73,3.86-3.45,5.78-5.2h0l18.08,14.47,1.59,1.27C2863,2921.84,2861.07,2923.57,2859.15,2925.3ZM2718,3077.2l37.36,64.82a26,26,0,0,0-3.31,8.38,1007.08,1007.08,0,0,1-206.48,85.87,26,26,0,0,0-8.35-3.67l-19.48-72.34A933.41,933.41,0,0,0,2718,3077.2Zm-211,43.29-6.54-24.32a860,860,0,0,0,99.83-35.19,869.19,869.19,0,0,0,84.54-41.27l12.48,21.64A885.51,885.51,0,0,1,2507,3120.49Zm2,151.6a26.11,26.11,0,0,0,48-12.9,1032.76,1032.76,0,0,0,110.27-39.46q47.64-20.14,92.7-44.74a26.12,26.12,0,0,0,43.67-19.34,26.35,26.35,0,0,0-.59-5.51,1035.67,1035.67,0,0,0,172.38-131.7c1.88-1.77,3.75-3.54,5.61-5.33h0l136.72,109.4c6.52,3.34,13-4.58,8.41-10.3l-108.66-135.79h0a1037,1037,0,0,0,132.74-173.61,26.1,26.1,0,0,0,31.62-25.53,26,26,0,0,0-6.79-17.56q10.74-19.71,20.65-39.92,12.63-25.8,23.89-52.4a1033.08,1033.08,0,0,0,39.58-110.69,26.11,26.11,0,0,0,12.87-48q11.93-49.16,19-99.42c.29-2.05.57-4.08.83-6.13l3.32-.37,367.08-40.74c-48.38,692.65-602,1248.28-1293.75,1299.86l41.16-370.82h0Q2460,3284,2509.07,3272.09ZM3301.3,2263.38h0a1049.88,1049.88,0,0,0-7.55-126.13c-.28-2.35-.58-4.71-.88-7.06l5,.56,364.93,40.52q3,45.67,3,92.12Zm277.35-555.63a1426.2,1426.2,0,0,0-1219.4-868.66L2345.3,713.4c788.59,41.21,1423.21,673.75,1467.7,1461.48l-125.78-14A1414.21,1414.21,0,0,0,3578.65,1707.75Zm83.27,450.36-365.7-40.59-5.12-.57h0q-7.07-50.24-19-99.41a26.11,26.11,0,0,0-12.89-48,1033.12,1033.12,0,0,0-39.43-110.17q-20.16-47.67-44.78-92.77a26.11,26.11,0,0,0-24.86-43.1,1036.39,1036.39,0,0,0-136.42-177.3c-.19-.2-.38-.4-.58-.59l4.73-5.91,104.67-130.81c3.34-6.52-4.58-13-10.3-8.41l-129.82,103.88-6,4.78h0a1035.6,1035.6,0,0,0-173.61-132.76,26.38,26.38,0,0,0,.61-5.59,26.12,26.12,0,0,0-43.75-19.26q-44.83-24.42-92.26-44.49a1031.36,1031.36,0,0,0-110.67-39.58,26.11,26.11,0,0,0-48-12.88,1021.14,1021.14,0,0,0-105.56-19.81h0l-.8-7.16-40.31-363.24C3054.71,912.74,3610.34,1466.33,3661.92,2158.11ZM2406,1260.48a1003.55,1003.55,0,0,1,101.07,19.64,26.07,26.07,0,0,0,5.55,7.59l-19.41,72.21q-38.61-9.8-78-16.24h0l-.81-7.3-8.42-75.89ZM2420,1386.2q31.68,5.63,62.57,13.49L2476,1424q-26.36-6.66-53.12-11.63h0l-.83-7.42-2.08-18.75Zm5.81,52.31q22.06,4.32,43.69,9.81l-30.15,112.19h0l-13.54-122Zm21.11,190.17h0l46.73-173.87a835.31,835.31,0,0,1,178.28,74.06L2474,1872.62h0L2447.59,1635l-.7-6.32ZM2830,1643h0l1.85,1.69q13.1,12,25.66,24.61h0l-347.95,348q-10.44-10.44-21.75-20l-8.2-73.94ZM2599.8,2062.1l4.59-5.74,1.92-2.4,32.14,3.57,6,.67,237.39,26.34,6.09.68,46.3,5.15,14.17,1.57,141.13,15.66h0c.45,2.37.88,4.74,1.31,7.11A841.23,841.23,0,0,1,3104,2263.37H2611.5A346.55,346.55,0,0,0,2570.3,2099ZM2883,2828.92l.86,1.07c-1.65,1.82-3.33,3.62-5,5.43q-10.46,11.23-21.3,22.08h0l-348-348q10.44-10.44,20-21.75l73.9-8.2Zm-59.5,58,1.66,1.33q-2.9,2.6-5.81,5.17a845.76,845.76,0,0,1-125.47,91.79l-205.61-356.72-4.08-7.09h0l.61-5.51,7.62,6.1ZM2672.2,2997.74A836,836,0,0,1,2494,3071.87l-42.34-157.34h0l1.72-15.51,26.14-235.63h0Zm-202.59-365.19-1.28,11.5-25.75,232.31-.62,5.56-5.58,50.36-1.72,15.53-15.07,135.91-.65,5.84c-1.16.23-2.33.45-3.5.66a841.24,841.24,0,0,1-152.07,13.8h0V2611.51a346.55,346.55,0,0,0,164.42-41.2l33.88,27.11,3,2.4,7.88,6.3ZM2263.37,3129a871.38,871.38,0,0,0,149.18-12.76l3.5-.62h0l-2.24,20.19-.66,5.91-3.49.59a892.1,892.1,0,0,1-146.29,12h0V3129Zm0,66.34A939.24,939.24,0,0,0,2405,3184.71c1.17-.18,2.33-.35,3.49-.54h0l-8.54,77-.67,6c-1.16.17-2.32.32-3.48.47a1014.94,1014.94,0,0,1-132.39,8.63h0v-80.94Zm0,105.94a1051.2,1051.2,0,0,0,129.55-8c1.16-.15,2.32-.29,3.48-.45h0l-41,369.95q-45.63,3-92,3h0V3301.3Zm102.48,385.92A1419.74,1419.74,0,0,0,3061.49,3447a1431.61,1431.61,0,0,0,517.16-628,1414.28,1414.28,0,0,0,109-459.76l125.7-14c-41.21,788.58-673.75,1423.2-1461.47,1467.7Zm1325-1423.84q0-44.88-2.73-89.32l125.59,14q1.8,37.45,1.81,75.37ZM2263.37,34.26V573.94q-30,0-60,1.07Zm-64.56,581.93q32.13-1.25,64.56-1.25v71.32q-36.28,0-72.51,1.65Zm64.56,95.07V835.93q-44.84,0-89.24,2.72l13.94-125.58Q2225.5,711.27,2263.37,711.26ZM2088.13,2972.58l12,108.18.83,7.49-5-1q-19.51-3.95-38.71-8.81l26.7-99.37,3.45-12.82h0Zm5.56-1558.26q-21.78,4.32-43.29,9.78l-6.54-24.32q26.09-6.63,52.75-11.71l3.5-.65h0l-2.27,20.39-.65,5.82Zm.6,25.53h0l-9.85,88.77-1.72,15.52-2.43-9-23.35-86.73q16.79-4.26,33.84-7.83ZM2033.15,1360l-19.47-72.37a26.31,26.31,0,0,0,5.4-7.38q45-11.19,91.52-18.29l3.49-.52h0l-8.6,77.43-.65,5.9c-1.17.19-2.34.4-3.5.6Q2067,1351.42,2033.15,1360Zm-498.7,1595.18-4.72,5.9h0a1019,1019,0,0,1-133.9-175.37,26.06,26.06,0,0,0,1.29-8.09c0-.18,0-.36,0-.54l65-37.43a929.32,929.32,0,0,0,118.45,158h0Zm6.44,53.36h0l-113.47,90.81,102-102.05h0c.39.4.77.78,1.17,1.17q5.08,5.08,10.24,10.06Zm-20.72-1432.71c1.67-1.81,3.35-3.6,5-5.39h0l50,62.47.83,1c-1.67,1.82-3.33,3.63-5,5.46a928.32,928.32,0,0,0-109.19,148l-65-37.43c0-.21,0-.41,0-.62a25.9,25.9,0,0,0-1.27-8A1018.88,1018.88,0,0,1,1520.17,1575.84Zm-2.9-36.19L1427.4,1427.4l102.06,102.06h0q-2.65,2.65-5.3,5.34c-2,2-4,4-5.91,6h0Zm81.8,70.07q-7.11,7.21-14,14.56h0l-.9-1.12-49.84-62.26h0q3.9-4.07,7.86-8.09c1.77-1.79,3.54-3.56,5.32-5.33h0l55.74,55.74,1.15,1.16C1602.59,1606.16,1600.82,1607.93,1599.07,1609.72Zm18.18,75.75.77,1q-2.49,2.76-4.92,5.53a861.73,861.73,0,0,0-93.72,128.56l-21.62-12.45a895,895,0,0,1,99.55-135.84c1.64-1.85,3.28-3.68,4.94-5.51h0Zm-167.87,123.6a934.21,934.21,0,0,0-83,200.32l-72.2-19.41a25.61,25.61,0,0,0-3.77-8.59,1006.37,1006.37,0,0,1,85.82-206.48,26.15,26.15,0,0,0,8.17-3.26Zm-51.61,460.81a869.34,869.34,0,0,0,13.36,146.25h0l-20.72-2.3-5.39-.6h0a889.89,889.89,0,0,1-12.59-143.35q0-3.24,0-6.5h25.34C1397.74,2265.55,1397.75,2267.71,1397.77,2269.88Zm-37.86-236.35q-9.79,38.6-16.24,78h0l-79.91,8.86-3.29.37h0a1011.05,1011.05,0,0,1,19.68-101.19,26.33,26.33,0,0,0,7.47-5.44Zm-28.51,229.85h0q0,3.26,0,6.5a936.19,936.19,0,0,0,11.16,138.64h0l-77.92-8.64-5.12-.57h0a1013.74,1013.74,0,0,1-9.08-129.43q0-3.24,0-6.5h81Zm-64.74,149.88,78.11,8.67h0q.62,3.56,1.25,7.1,5.84,32.55,14,64.57l-72.28,19.45a26.23,26.23,0,0,0-7.5-5.51q-10.73-43.2-17.71-87.78c-.37-2.35-.73-4.72-1.08-7.08Zm27.5,123.95,72.34-19.47a934.09,934.09,0,0,0,83,200.26l-64.87,37.38a25.85,25.85,0,0,0-8.32-3.31,1007.05,1007.05,0,0,1-85.88-206.5A25.76,25.76,0,0,0,1294.16,2537.21ZM1497.93,2719l21.62-12.46a863.09,863.09,0,0,0,102.88,138.72h0l-11,13.78-4.7,5.89h0A895.7,895.7,0,0,1,1497.93,2719Zm54.87,255,51.57-51.56h0l1.18,1.17q9.27,9.26,18.78,18.2h0l-57.43,46-6,4.77h0q-6.21-6-12.29-12l-1.17-1.17Zm23.62,22.8,57.54-46h0c.6.57,1.22,1.13,1.84,1.7a928.46,928.46,0,0,0,151.61,112.47l-37.35,64.88-.69,0a26.09,26.09,0,0,0-8.14,1.3,1019.25,1019.25,0,0,1-169-127.79l-1.82-1.71Zm232.66,80.62a933,933,0,0,0,200.29,83l-19.4,72.2a25.91,25.91,0,0,0-8.57,3.77A1006.35,1006.35,0,0,1,1775,3150.54a26,26,0,0,0-3.25-8.24Zm20.64-35.85,12.47-21.65a867.75,867.75,0,0,0,184.41,76.39l-6.54,24.32A886.45,886.45,0,0,1,1829.72,3041.53Zm3.48-56.15a846.15,846.15,0,0,1-124.76-91.08l-1.88-1.67,6-4.83,327.88-262.37-3.4,5.9Zm-12.66,22L1808.09,3029a895.71,895.71,0,0,1-139.5-102.81l-1.86-1.68,6-4.82,13.68-10.94h0l1.87,1.67A862.21,862.21,0,0,0,1820.54,3007.38Zm-143.86-107.49L1663,2910.82l-6,4.79h0q-11.28-10.45-22.18-21.34l-1.17-1.17,17.6-17.6h0l1.18,1.17q11.91,11.88,24.22,23.23h0Zm-33.45-80.64-4.7,5.88h0a845.56,845.56,0,0,1-97-131.28L1895.23,2490l10.14-5.83h0l5.51.61Zm210-333.93L1529,2672.2A835.25,835.25,0,0,1,1454.89,2494l139-37.41,18.31-4.93h0l245.18,27.21,6,.67ZM1525.79,2449l-77.4,20.83q-3.8-15-7.06-30.21-.76-3.55-1.49-7.12l5.64.62,84.46,9.38,14.17,1.57Zm-60,151.35a867.9,867.9,0,0,0,41.27,84.53l-21.64,12.48a885.65,885.65,0,0,1-79.14-190.3l24.32-6.55A862.7,862.7,0,0,0,1465.77,2600.33Zm-66-117.43q-6.18-24.32-11-49.13-.69-3.54-1.36-7.11l5.51.61,20.72,2.3h0c.46,2.38.94,4.76,1.42,7.12q4,19.95,9,39.66Zm12.59-379h0l-23.09,2.57-3.07.34h0q5.63-31.68,13.48-62.56l24.32,6.54Q1417.34,2077.11,1412.36,2103.87Zm-6.2-83.8a886.05,886.05,0,0,1,79.07-190.35l21.65,12.47a867.44,867.44,0,0,0-76.4,184.42Zm32.34,80.9q4.34-22,9.81-43.68l112.16,30.15h0l-119,13.2-3,.33Zm16.29-67.83a835.21,835.21,0,0,1,74.07-178.3l343.75,198h0l-224.15,24.88-19.77,2.2h0Zm86.59-199.94a845.67,845.67,0,0,1,87.85-121.07c1.62-1.87,3.25-3.71,4.9-5.56h0l254,317.44,19.89,24.86-8.59,1h0l-15.44-19.3ZM1627,1676.62h0l-.85-1.06-14.9-18.6h0q8.46-9.11,17.16-18,2.64-2.68,5.31-5.34h0l16.46,16.46,1.15,1.16c-1.78,1.78-3.54,3.55-5.3,5.34Q1636.28,1666.5,1627,1676.62Zm2.18-96.12h0l-1.51-1.21-61.94-49.57h0A1019,1019,0,0,1,1741,1395.85a26.13,26.13,0,0,0,8,1.25h.64l37.44,65A928.26,928.26,0,0,0,1629.13,1580.5Zm32.73,26.18a895.65,895.65,0,0,1,145.92-108.74l12.46,21.61a863,863,0,0,0-138.71,102.88h0l-1.57-1.26-18.1-14.49h0Zm146.9-157.12-37.45-65a25.74,25.74,0,0,0,3.25-8.16,1007.31,1007.31,0,0,1,206.55-85.93,25.79,25.79,0,0,0,8.43,3.68L2009,1366.5a933,933,0,0,0-200.25,83.06Zm211-43.29,6.55,24.32a867.33,867.33,0,0,0-184.37,76.46l-12.47-21.64A885.35,885.35,0,0,1,2019.71,1406.27Zm93.76-170.11q-48.42,7-95.89,18.52a26.1,26.1,0,0,0-48,12.91A1031.16,1031.16,0,0,0,1859.36,1307q-47.62,20.13-92.68,44.73a26.11,26.11,0,0,0-43.77,19.23,26.32,26.32,0,0,0,.62,5.66,1036.34,1036.34,0,0,0-177.93,137h0l-1.42-1.14-135.3-108.27c-6.52-3.34-13,4.58-8.41,10.3l107.76,134.67.9,1.13c-1.69,1.79-3.37,3.57-5.05,5.37a1034.79,1034.79,0,0,0-127.65,168.15,25.68,25.68,0,0,0-5.65-.62,26.11,26.11,0,0,0-19.22,43.78q-24.43,44.88-44.54,92.33a1033,1033,0,0,0-39.54,110.57,26.11,26.11,0,0,0-12.89,48,1029.29,1029.29,0,0,0-19.84,105.65h0L864.36,2164.7c48.37-692.65,602-1248.28,1293.75-1299.86l-40.49,364.82-.67,6Zm-888,1033.72a1049.12,1049.12,0,0,0,8.39,126.58h0l-369.95-41q-3-45.64-3-92h364.53Q1225.45,2266.64,1225.47,2269.88ZM1707.74,948.11A1426.15,1426.15,0,0,0,839.09,2167.5l-125.7,13.95c41.21-788.58,673.76-1423.2,1461.49-1467.69l-14,125.78A1414.33,1414.33,0,0,0,1707.74,948.11ZM835.92,2263.38h0q0,44.85,2.73,89.25L713.07,2338.7q-1.8-37.44-1.82-75.32H835.92Zm3.62,102.47a1419.62,1419.62,0,0,0,240.18,695.64,1431.77,1431.77,0,0,0,628,517.17,1414.53,1414.53,0,0,0,459.76,109l13.95,125.7c-788.58-41.21-1423.2-673.75-1467.7-1461.48Zm25.3,2.81,370.8,41.16h0q.51,3.54,1,7.07,6.9,46.55,18,92.19a26.11,26.11,0,0,0,12.91,48A1035.12,1035.12,0,0,0,1307,2667.39q20.13,47.58,44.7,92.61a26.12,26.12,0,0,0,19.27,43.74,26.56,26.56,0,0,0,5.61-.61,1036.63,1036.63,0,0,0,137.05,178h0l-109.39,136.71c-3.34,6.52,4.57,13,10.29,8.41l135.79-108.67h0l1.82,1.72a1035.36,1035.36,0,0,0,171.69,131,26.56,26.56,0,0,0-.59,5.54,26.12,26.12,0,0,0,43.71,19.3q44.89,24.47,92.38,44.57a1031.8,1031.8,0,0,0,110.58,39.54,26.11,26.11,0,0,0,48,12.88q49.79,12.09,100.7,19.19c1.65.23,3.3.46,5,.67h0l41.11,370.38C1472.05,3614,916.42,3060.44,864.84,2368.66Zm1250.94,896.9q-48.92-7.17-96.24-19a26.33,26.33,0,0,0-5.44-7.47l19.42-72.29q36.17,9.18,73,15.42c1.65.28,3.31.56,5,.82h0l8.43,76,.8,7.2C2119.08,3266,2117.43,3265.8,2115.78,3265.56Zm-14-125.9q-29.13-5.35-57.6-12.59l6.53-24.32q23.91,6,48.16,10.7l5,.94h0l2.08,18.76.82,7.4C2105.12,3140.27,2103.47,3140,2101.81,3139.66Zm-25.39-228.75L2033.13,3072a835.61,835.61,0,0,1-178.29-74.06l193.87-336.68,4.08-7.09h0l.07.59,27,243.37ZM1702.76,2879l-6,4.81h0q-13.44-12.27-26.32-25.12l-1.17-1.17,5.32-5.33,342.63-342.64q10.44,10.44,21.75,20l8.21,73.87Zm231.38-415.56-5.93,3.41-.81-1.41-2.81,3.5h0l-2,1.13-2.05,2.57-2-.22-42-4.66-243.9-27.06-68.11-7.55-121.86-13.52-5.51-.61h0a839.54,839.54,0,0,1-14.43-149.14c0-2.17,0-4.33,0-6.5h492.5a346.48,346.48,0,0,0,41.21,164.43L1931.54,2459Zm-10.54-416.31-4-5L1643,1696.69h0q10.26-11.23,20.92-22.09,2.64-2.68,5.31-5.34h0l348,348q-10.44,10.44-20,21.75l-69.67,7.73Zm-222-408.61h0a843.91,843.91,0,0,1,131.28-97l206.83,358.84,2.87,5h0l-.61,5.51ZM1854.55,1529a836,836,0,0,1,178.25-74.13l39.93,148.34,2.43,9h0l-26.6,239.65-1.28,11.49-2.87-5Zm200.39,384,4.66-42,26.6-239.72,7.55-68.11,14-126h0a838.53,838.53,0,0,1,151.49-14.46c1.38,0,2.77,0,4.15,0v492.52A346.43,346.43,0,0,0,2099,1956.47l-44.85-35.89Zm204.28-515.29a868.84,868.84,0,0,0-148.59,13.37h0l.65-5.87,2.24-20.23h0a890.14,890.14,0,0,1,145.7-12.6c1.38,0,2.76,0,4.15,0v25.34C2262,1397.74,2260.6,1397.74,2259.22,1397.76Zm0-66.34a938,938,0,0,0-141,11.18h0l.66-5.95,8.55-77.07h0a1010.47,1010.47,0,0,1,131.78-9.09c1.38,0,2.77,0,4.15,0v80.94C2262,1331.4,2260.6,1331.4,2259.22,1331.42Zm0-105.94a1045.12,1045.12,0,0,0-128.93,8.4h0l.67-6.06,40.37-363.9q45.65-3,92-3v364.53C2262,1225.46,2260.6,1225.46,2259.22,1225.48Zm-73.58-608.72-8,71.81A1574.8,1574.8,0,0,0,688.22,2184.25l-71.76,8C652.76,1341.93,1336.21,656.39,2185.64,616.76ZM614.94,2263.38h71.31q0,36.28,1.66,72.52l-71.72-8Q614.94,2295.82,614.94,2263.38Zm1.82,77.75,71.81,8A1574.87,1574.87,0,0,0,2184.25,3838.54l8,71.76C1341.93,3874,656.39,3190.55,616.76,2341.13Zm1332.45-77.68c0-173.52,140.66-314.18,314.18-314.18s314.18,140.66,314.18,314.18-140.66,314.18-314.18,314.18S1949.21,2437,1949.21,2263.45Zm314.16,2229.22V3952.82h0q30,0,60-1.06Zm64.54-582.1q-32.11,1.24-64.53,1.25h0v-71.31h0q36.27,0,72.49-1.66Zm-64.53-95.06h0V3690.84h0q44.82,0,89.2-2.73l-13.93,125.59Q2301.24,3815.48,2263.38,3815.51Zm77.74,94.49,8-71.81A1574.8,1574.8,0,0,0,3838.53,2342.51l71.76-8C3874,3184.83,3190.55,3870.37,2341.12,3910ZM3840.5,2263.38q0-36.32-1.66-72.58l71.72,8q1.24,32.16,1.26,64.62Zm112.32,0q0-30-1.07-60.05l540.83,60.05Z" fill="#fff"/><path d="M2522.39,2263.54c0-143-116-259-259-259s-259,116-259,259,116,259,259,259S2522.39,2406.58,2522.39,2263.54Zm-360.07-.15a100.95,100.95,0,1,1,100.95,100.94A100.95,100.95,0,0,1,2162.32,2263.39Z" fill="#fff"/></g></g></svg>